<?xml version="1.0" encoding="UTF-8"?>
<svg id="Layer_1" data-name="Layer 1" xmlns="http://www.w3.org/2000/svg" viewBox="0 0 748.56 450.16">
  <defs>
    <style>
      .cls-1 {
        fill: #fff;
        stroke-width: 0px;
      }
    </style>
  </defs>
  <g>
    <path class="cls-1" d="m88.83,191.07L3.7,83.28h21.75l66.62,83.74c3.24,4.63,8.33,12.49,8.33,12.49,0,0,4.63-7.86,8.33-12.49l66.16-83.74h21.28l-84.66,107.8,88.37,113.35h-21.28l-69.86-87.9c-3.7-5.09-8.79-13.42-8.79-13.42,0,0-4.63,8.33-8.33,13.42l-69.86,87.9H0l88.83-113.35Z"/>
    <path class="cls-1" d="m443.21,193.85c0,65.23-45.8,115.2-109.18,115.2-40.71,0-76.8-24.52-91.6-57.83v117.05h-17.58V83.28h17.12v50.89c16.19-32.85,51.82-55.52,92.07-55.52,63.38,0,109.18,49.5,109.18,115.2Zm-110.57,98.08c53.67,0,92.07-41.64,92.07-98.08s-39.79-98.08-91.6-98.08-90.68,43.49-90.68,98.08,39.79,98.08,90.21,98.08Z"/>
    <path class="cls-1" d="m474.67,193.85c0-64.77,47.19-115.2,108.26-115.2s105.48,50.43,105.48,114.74c0,3.24-.46,6.48-.46,7.4h-194.77c3.24,53.67,43.49,92.07,93.46,92.07,28.22,0,55.05-10.64,73.56-28.68l9.25,12.95c-21.74,19.89-51.35,31.92-82.81,31.92-62,0-111.96-48.58-111.96-115.2Zm195.7-7.4c-2.31-51.82-40.25-91.6-87.9-91.6s-86.51,38.86-89.29,91.6h177.19Z"/>
    <path class="cls-1" d="m730.98,0h17.58v304.42h-17.58V0Z"/>
  </g>
  <g>
    <path class="cls-1" d="m1.5,424.76c0-9.33,6.48-16.34,15.28-16.34,6.35,0,12.17,4.43,14.09,10.52v-9.85h1.26v31.35h-1.26v-9.85c-1.92,6.08-7.74,10.52-14.09,10.52-8.8,0-15.28-7.01-15.28-16.34Zm29.37,0c0-8.33-6.35-15.08-14.09-15.08s-13.95,6.42-13.95,15.08,6.02,15.08,13.95,15.08,14.09-6.74,14.09-15.08Z"/>
    <g>
      <path class="cls-1" d="m53.94,436.2l2.05-4.1c2.38,2.31,5.82,4.23,10.52,4.23,4.43,0,8.07-2.05,8.07-4.96,0-3.37-3.9-4.3-7.8-5.29-5.95-1.52-11.38-3.18-11.38-9.33,0-5.82,6.08-9.19,11.51-9.19,4.43,0,7.67,1.19,10.98,3.44l-1.98,4.1c-2.71-1.85-5.56-2.78-8.93-2.78s-6.42,1.85-6.42,4.36c0,3.18,3.57,3.9,7.34,4.7,5.82,1.32,11.84,3.51,11.84,9.86,0,6.81-6.95,9.85-13.23,9.85s-10.72-2.98-12.57-4.9Z"/>
      <path class="cls-1" d="m85.35,424.36c0-9.39,7.47-16.8,16.93-16.8s16.93,7.41,16.93,16.8-7.47,16.73-16.93,16.73-16.93-7.41-16.93-16.73Zm28.7,0c0-6.81-5.09-11.91-11.77-11.91s-11.77,5.09-11.77,11.91,5.09,11.84,11.77,11.84,11.77-5.09,11.77-11.84Z"/>
      <path class="cls-1" d="m126.35,396.91h5.03v43.52h-5.03v-43.52Z"/>
      <path class="cls-1" d="m138.52,424.36c0-9.33,7.01-16.8,16.2-16.8,8.6,0,15.41,7.41,15.41,16.6,0,.93-.13,1.92-.13,1.98h-26.26c.79,6.42,5.75,10.45,11.71,10.45,3.64,0,7.28-1.26,9.92-3.44l2.18,3.71c-3.44,2.71-7.74,4.23-12.17,4.23-9.13,0-16.87-6.55-16.87-16.73Zm26.65-2.05c-.53-5.95-5.09-10.25-10.71-10.25s-9.99,4.23-10.72,10.25h21.43Z"/>
      <path class="cls-1" d="m177.27,408.22h5.03v5.49c2.25-3.9,6.41-6.15,11.18-6.15,8.07,0,11.64,4.89,11.64,13.36v19.51h-5.03v-18.85c0-5.95-2.18-9.13-8-9.13s-9.79,4.5-9.79,9.86v18.12h-5.03v-32.21Z"/>
      <path class="cls-1" d="m214.76,430.78v-18.39h-4.83v-4.17h4.83v-6.94l5.03-.93v7.87h10.98v4.17h-10.98v18.52c0,4.43,1.92,5.69,4.5,5.69,2.98,0,5.29-1.79,5.29-1.79l1.65,3.9c-1.26.86-3.9,2.38-7.41,2.38-5.69,0-9.06-2.78-9.06-10.32Z"/>
      <path class="cls-1" d="m253.44,445.39l2.12-3.24c2.58,2.58,6.35,4.04,10.12,4.04,5.49,0,11.71-3.37,11.71-12.9v-1.06c-1.39,3.64-5.82,6.61-12.04,6.61-8.86,0-15.08-6.88-15.08-15.61s6.22-15.68,15.08-15.68c5.56,0,10.58,2.51,12.24,6.55v-5.89h4.83v24.93c0,12.96-9.26,17-16.34,17-5.16,0-9.59-1.72-12.63-4.76Zm23.94-22.55c0-6.08-4.96-10.78-11.05-10.78s-10.91,4.83-10.91,11.18,4.76,11.11,10.91,11.11,11.05-4.76,11.05-11.51Z"/>
      <path class="cls-1" d="m290.87,408.22h5.03v6.81c1.85-4.23,6.02-7.47,12.43-7.47v5.49c-7.54,0-12.43,4.23-12.43,12.1v15.28h-5.03v-32.21Z"/>
      <path class="cls-1" d="m312.23,424.36c0-9.39,7.47-16.8,16.93-16.8s16.93,7.41,16.93,16.8-7.47,16.73-16.93,16.73-16.93-7.41-16.93-16.73Zm28.7,0c0-6.81-5.09-11.91-11.77-11.91s-11.77,5.09-11.77,11.91,5.09,11.84,11.77,11.84,11.77-5.09,11.77-11.84Z"/>
      <path class="cls-1" d="m352.7,428.33v-20.11h5.03v19.45c0,6.02,2.91,8.53,8.13,8.53,5.82,0,9.19-4.76,9.19-9.72v-18.26h5.03v32.21h-4.83v-5.69c-1.98,4.17-6.61,6.35-10.85,6.35-7.94,0-11.71-4.17-11.71-12.77Z"/>
      <path class="cls-1" d="m388.54,408.22h4.83v5.56c2.38-4.17,7.08-6.22,12.3-6.22,8.93,0,15.21,7.34,15.21,16.73s-6.28,16.8-15.21,16.8c-5.09,0-9.72-2.12-12.11-6.28v14.95h-5.03v-41.54Zm27.18,16.07c0-6.81-4.76-11.84-11.18-11.84s-10.98,5.09-10.98,11.84,4.83,11.91,10.98,11.91,11.18-5.03,11.18-11.91Z"/>
    </g>
    <path class="cls-1" d="m431.52,407.49h-6.23v-3.02h15.74v3.02h-6.23v15.55h-3.28v-15.55Zm12.01-3.02h2.38l6.68,6.68,6.74-6.68h2.38v18.57h-3.34v-13.04l-5.78,5.53-5.78-5.65v13.17h-3.28v-18.57Z"/>
    <g>
      <path class="cls-1" d="m478.71,424.76c0-9.19,7.08-16.34,16.2-16.34,4.37,0,8.27,1.65,11.18,4.37l-.86.93c-2.64-2.51-6.28-4.04-10.32-4.04-8.4,0-14.88,6.55-14.88,15.08s6.48,15.08,14.88,15.08c4.5,0,8.4-1.85,11.11-4.89l.99.79c-2.91,3.31-7.21,5.36-12.1,5.36-9.13,0-16.2-7.14-16.2-16.34Z"/>
      <path class="cls-1" d="m512.57,424.76c0-9.19,7.08-16.34,16.2-16.34s16.21,7.14,16.21,16.34-7.08,16.34-16.21,16.34-16.2-7.14-16.2-16.34Zm31.09,0c0-8.53-6.48-15.08-14.88-15.08s-14.88,6.55-14.88,15.08,6.48,15.08,14.88,15.08,14.88-6.55,14.88-15.08Z"/>
      <path class="cls-1" d="m553.5,409.08h1.26v6.81c1.79-4.37,6.22-7.47,11.38-7.47s9.26,2.31,10.45,7.8c2.45-6.02,8.2-7.8,11.71-7.8,6.28,0,10.78,3.24,10.78,11.38v20.64h-1.26v-20.44c0-7.08-3.51-10.32-9.52-10.32-6.74,0-11.38,5.42-11.38,10.98v19.78h-1.26v-20.44c0-7.08-3.5-10.32-9.52-10.32-6.81,0-11.38,5.82-11.38,10.98v19.78h-1.26v-31.35Z"/>
      <path class="cls-1" d="m608.58,409.08h1.26v9.85c1.92-6.08,7.74-10.52,14.09-10.52,8.8,0,15.28,7.01,15.28,16.34s-6.48,16.34-15.28,16.34c-6.35,0-12.17-4.43-14.09-10.52v18.92h-1.26v-40.41Zm29.3,15.67c0-8.66-6.02-15.08-13.95-15.08s-14.09,6.75-14.09,15.08,6.35,15.08,14.09,15.08,13.95-6.41,13.95-15.08Z"/>
      <path class="cls-1" d="m646.08,424.76c0-9.33,6.48-16.34,15.28-16.34,6.35,0,12.17,4.43,14.09,10.52v-9.85h1.26v31.35h-1.26v-9.85c-1.92,6.08-7.74,10.52-14.09,10.52-8.8,0-15.28-7.01-15.28-16.34Zm29.36,0c0-8.33-6.35-15.08-14.09-15.08s-13.95,6.42-13.95,15.08,6.02,15.08,13.95,15.08,14.09-6.74,14.09-15.08Z"/>
      <path class="cls-1" d="m686.88,409.08h1.26v6.81c1.92-4.37,6.61-7.47,12.1-7.47,6.68,0,11.44,3.24,11.44,11.38v20.64h-1.26v-20.44c0-7.08-3.77-10.32-10.18-10.32-7.34,0-12.1,5.82-12.1,10.98v19.78h-1.26v-31.35Z"/>
      <path class="cls-1" d="m721.07,448.97c2.84,0,5.69-.53,8.86-7.14l.86-1.79-15.01-30.95h1.39l13.82,28.57c.27.53.46,1.13.46,1.13,0,0,.2-.6.46-1.13l13.76-28.57h1.39l-16.01,33.13c-3.7,7.61-6.41,7.94-9.99,7.94v-1.19Z"/>
    </g>
  </g>
</svg>