<?xml version="1.0" encoding="utf-8"?>
<!-- Generator: Adobe Illustrator 28.0.0, SVG Export Plug-In . SVG Version: 6.00 Build 0)  -->
<svg version="1.1" id="Layer_1" xmlns="http://www.w3.org/2000/svg" xmlns:xlink="http://www.w3.org/1999/xlink" x="0px" y="0px"
	 viewBox="0 0 470.55 646.3" style="enable-background:new 0 0 470.55 646.3;" xml:space="preserve">
<style type="text/css">
	.st0{fill-rule:evenodd;clip-rule:evenodd;}
</style>
<g id="Group_62">
	<path id="Path_26" class="st0" d="M180.02,77.54c3.34,0.04,6.07,2.69,6.19,6.03c-0.17,3.35-2.85,6.03-6.19,6.2
		c-3.28-0.2-5.85-2.91-5.87-6.2C174.13,80.29,176.75,77.6,180.02,77.54 M325.58,176.32l24.29-69.93l-16.95,8.64l-1.14,10.76
		c-1.79-3.59-5.71-10.27-10.43-10.1c-12.72-0.16-12.06,17.62-7.83,28.04h5.87c0.17-4.89-2.12-12.39,3.1-12.39
		c5.38-0.16,5.54,17.76-10.1,17.62c-8.15,0-13.53-7.17-10.6-23.96h5.71l1.14-7.5h-5.54l2.77-16.95h-8.31l-2.28,16.62h-4.9
		c-0.47,2.59-0.8,5.2-0.98,7.82c1.73,0.16,3.48,0.16,5.22,0c-1.47,9.78-3.59,24.94-17.62,23.96c-13.21-0.81-10.59-18.42-3.91-17.93
		c4.24-0.16,2.12,7.66,0,12.39h7.34c6.68-11.09,9.12-28.2-1.79-27.71c-4.72,0-7.17,3.43-9.62,5.54l1.63-14.51l-8.15-8.64l-9.44,8.31
		l2.12,14.83c-2.61-2.28-5.87-6.03-10.43-5.54c-9.62,0.65-6.68,16.3-1.79,27.71h7.66c-1.96-4.72-3.42-11.57,0.65-11.74
		c9.62-1.31,7.99,17.27-5.05,17.62c-13.37,0.16-13.84-14.67-15.32-24.29c1.84,0.16,3.7,0.16,5.54,0c-0.31-2.6-0.65-4.72-0.98-7.5
		h-5.54l-2.77-16.63h-7.99l2.45,16.95h-5.55l0.98,7.17h5.87c2.94,17.28-3.42,24.29-11.41,24.29c-14.83,0-14.02-18.09-9.61-17.93
		c4.89,0,3.42,7.82,3.42,12.71h6.19c5.71-10.43,3.91-27.71-8.64-27.71c-4.89,0-6.52,6.52-8.31,10.1l-1.3-10.76l-18.42-9.29
		l25.92,69.93L325.58,176.32z M261.69,63.37c32.52-0.07,63.5,13.82,85.08,38.14l-14.34,7.01v-6.04
		c-12.71-14.35-42.06-26.89-58.68-26.57l-2.6,23.14l-8.64-8.64l-9.78,9.78l-3.75-24.62c-16.63,0-43.68,14.67-56.24,28.04v5.54
		l-15.16-7.01C198.71,77.69,229.37,63.55,261.69,63.37 M284.18,49.17c3.28,0.06,5.9,2.75,5.87,6.03c0.04,3.31-2.56,6.05-5.87,6.19
		c-3.4-0.05-6.14-2.79-6.19-6.19C278.06,51.84,280.82,49.15,284.18,49.17 M300,53.41c3.31-0.04,6.05,2.56,6.19,5.87
		c-0.05,3.4-2.79,6.14-6.19,6.19c-3.25-0.1-5.81-2.81-5.71-6.06c0-0.04,0-0.09,0.01-0.13c-0.09-3.15,2.39-5.77,5.54-5.86
		C299.88,53.42,299.94,53.41,300,53.41 M315.48,59.93c3.38,0.16,6.11,2.82,6.36,6.19c-0.2,3.37-2.98,6.01-6.36,6.03
		c-3.25-0.12-5.83-2.78-5.86-6.03C309.69,62.86,312.22,60.19,315.48,59.93 M330.8,67.92c3.29,0.02,6,2.58,6.19,5.87
		c-0.17,3.35-2.84,6.03-6.19,6.2c-3.33-0.08-5.95-2.85-5.87-6.17c0-0.01,0-0.02,0-0.02c-0.07-3.17,2.45-5.8,5.62-5.87
		C330.63,67.92,330.72,67.92,330.8,67.92 M344.01,78.36c3.2,0.1,5.77,2.67,5.87,5.87c-0.08,3.26-2.61,5.94-5.87,6.19
		c-3.43-0.04-6.22-2.77-6.35-6.19C337.82,80.86,340.65,78.25,344.01,78.36 M263.48,31.9c6.12,1.19,10.47,6.65,10.27,12.88
		c0.17,7.2-5.53,13.19-12.73,13.36c-0.1,0-0.2,0-0.31,0c-7.38,0.09-13.43-5.81-13.53-13.19c0-0.06,0-0.12,0-0.18
		c0.12-6.07,4.24-11.32,10.1-12.88v-7.99h-7.33v-5.87h7.33V6.96h6.2v11.08h7.17v6.03h-7.17L263.48,31.9z M237.07,49.18
		c3.09-0.16,5.72,2.22,5.88,5.31c0.01,0.24,0.01,0.48-0.01,0.72c0.12,3.11-2.3,5.74-5.41,5.86c-0.15,0.01-0.3,0.01-0.45,0
		c-3.29,0-5.95-2.67-5.95-5.95C231.13,51.84,233.79,49.18,237.07,49.18 M221.59,53.74c3.31,0.14,5.9,2.88,5.86,6.19
		c0.01,3.23-2.59,5.85-5.82,5.87c-0.02,0-0.03,0-0.05,0c-3.32,0.1-6.1-2.52-6.19-5.84c0-0.01,0-0.02,0-0.02
		C215.45,56.54,218.19,53.79,221.59,53.74 M207.08,60.26c3.22,0.05,5.82,2.65,5.87,5.87c0.11,3.36-2.51,6.19-5.87,6.35
		c-3.43-0.17-6.18-2.92-6.35-6.35C201.05,62.85,203.78,60.33,207.08,60.26 M193.24,68.9c3.22,0.04,5.82,2.64,5.87,5.86
		c0.04,3.34-2.53,6.14-5.87,6.36c-3.34-0.1-5.97-2.9-5.87-6.24c0-0.04,0-0.08,0-0.12c-0.07-3.17,2.44-5.79,5.61-5.86
		C193.06,68.9,193.15,68.9,193.24,68.9"/>
	<path id="Path_27" class="st0" d="M269.35,490.91c-28.53,0.33-63.9-14.83-64.55-60.8c-0.05-6.94,0.55-13.87,1.79-20.69
		c28.21-5.76,55.74-14.44,82.15-25.92c41.57-18.42,80.53-45.32,99.59-81.16c8.43-12.77,12.96-27.73,13.04-43.03
		c-0.49-29.83-21.68-45.64-56.24-45.15c-19.47,0.51-38.64,4.89-56.4,12.88C240,248.22,194.68,292.4,168.77,341.95l-0.98-0.49
		c-23.7-13.88-44.73-31.87-62.11-53.14c-0.31-0.16-0.31-0.65-0.65-0.81c-5.06-6.03-10.76-12.22-15.49-18.91c0,0-3.1-3.91-4.56-6.03
		c-3.26-4.24-5.87-8.81-8.97-13.04c-4.72-5.87-8.31-12.55-12.55-18.58c-5.54-9.29-11.41-18.42-16.63-27.71
		c-0.81-1.3-1.95-3.59-1.95-3.59c-4.4-8.15-8.31-16.46-12.39-24.45c-0.81-1.14-1.14-2.45-1.95-3.42c-1.18-1.47-2.22-3.05-3.1-4.72
		c-2.6-2.77-5.03-6.36-8.64-7.66c-1.07-0.1-2.14,0.25-2.93,0.98c-1.04,2.37-1.69,4.88-1.94,7.45c-0.35,4.18-0.3,8.38,0.17,12.55
		c0,1.63,0.65,3.26,0.81,4.89c0.16,1.95,0.98,3.75,1.14,5.71c1.63,10.26,11.9,33.9,11.9,33.9c2.6,5.06,5.21,10.11,8.31,15
		c4.54,8.18,9.49,16.12,14.83,23.8c8.81,11.57,18.42,23.15,27.87,33.91c-0.53-0.18-0.99-0.52-1.31-0.98
		c-5.43-4.07-10.55-8.54-15.32-13.37c-6.03-6.68-13.21-12.22-19.4-18.74c-0.31-0.49-14.51-14.02-19.88-19.23
		c-3.16-3.35-6.85-6.16-10.92-8.31c-1.47-0.31-3.59-0.81-4.56,0.81c-0.23,0.29-0.39,0.62-0.49,0.98c-0.15,1.37-0.05,2.76,0.31,4.09
		c0.46,2.49,1.11,4.95,1.96,7.34c0.49,2.44,2.12,4.72,2.61,7.17c3.06,5.99,6.43,11.81,10.1,17.44c3.66,5.62,7.8,10.91,12.39,15.81
		c11.08,13.21,24.12,23.31,37,33.42c6.52,4.4,12.72,9.29,19.56,13.21c1.05,0.76,2.14,1.47,3.26,2.12c0.65,0.65,1.63,0.82,2.12,1.47
		h-0.31c-14.18-5.87-27.05-13.53-40.75-20.21c-6.52-3.42-12.71-7.83-19.07-11.41c-0.49-0.65-8.15-4.4-11.08-6.52
		c-2.45-0.98-4.4-3.26-7.17-2.77c-3.1,1.14-1.63,6.19-0.98,7.66c1.05,2.24,2.25,4.41,3.57,6.5c2.85,4.91,6.48,9.31,10.76,13.04
		c1.89,1.97,3.9,3.83,6.03,5.54c3.7,3.47,7.68,6.64,11.9,9.45c5.87,3.75,11.57,7.66,17.62,10.92c2.12,1.14,4.4,2.61,6.52,3.75
		c6.16,3.51,12.59,6.5,19.23,8.96c0.65,0.49,10.11,4.24,14.02,5.87c0.49,0.16,6.19,2.28,8.64,2.93l0.16,0.31
		c-2.28-0.16-4.56-0.98-7.01-0.98c-1.14-0.31-2.12,0-3.26-0.49c-2.61-0.81-5.38-0.98-7.83-1.63c-5.87-0.81-11.24-1.96-16.95-2.93
		c-7.01-1.47-13.69-4.09-21.02-4.57c-2.77,0.16-5.71-1.3-8.15,0c-0.31,0.66-1.14,0.49-1.47,1.15c-0.55,2.17,0.21,4.46,1.96,5.86
		c3.63,3.42,7.61,6.43,11.89,8.98c1.63,0.65,2.77,2.12,4.56,2.44c1.97,1.3,4.04,2.44,6.19,3.42c1.68,0.77,3.31,1.64,4.89,2.61
		c2.28,0.65,4.4,1.95,6.85,2.45c3.61,1.64,7.46,2.68,11.41,3.1c4.24,1.31,8.48,1.63,12.39,2.77c7.24,1.61,14.61,2.59,22.02,2.94
		c-2.4,0.61-4.7,1.55-6.85,2.78c-0.49,0.48-0.65,1.3-0.98,1.79c-0.65,1.14,0.16,2.11,0.49,2.94c3.1,2.61,11.09,4.09,11.41,4.24
		c3.21,1.57,6.7,2.51,10.27,2.77c-0.31,4.4-0.49,8.81-0.49,13.05c0.65,42.71,22.98,95.19,94.22,94.21
		c16.76-0.45,33.3-4.04,48.74-10.59c45.81-18.75,81.34-56.24,86.72-64.56l-8.15-7.98c-27.22,23.14-51.02,42.87-78.57,49.7
		c-6.34,1.62-12.85,2.49-19.39,2.6 M288.76,347.45c-21.04,10.03-44.48,13.93-67.64,11.25l5.54-15c15-37.49,37.98-71.88,62.1-92.91
		c14.67-12.88,29.83-20.7,43.69-21.03c37.65-0.98,35.86,73.68-39.45,115.57C291.54,345.99,290.24,346.8,288.76,347.45 M28.43,183.49
		c-0.88-2.04-1.54-4.17-1.96-6.36c1.31,1.96,2.45,3.59,3.26,5.05l1.79,4.09l1.47,3.26l3.26,6.03c2.28,4.56,4.72,9.29,7.34,13.69
		l0.82,1.63c0.16,0.16,0.31,0.49,0.49,0.65l2.94,4.89c1.35,1.82,2.5,3.79,3.42,5.87l6.19,10.27l8.31,13.37c0,0,3.75,6.03,3.91,6.03
		l9.46,12.88l3.26,4.56l1.47,1.95c0.95,1.03,1.77,2.18,2.44,3.42l2.44,3.1c1.79,2.44,3.58,4.89,5.54,7.17
		c4.91,6.33,10.19,12.37,15.81,18.09l4.72,5.05c3.74,3.43,11.57,11.25,12.06,11.74c1.81,2.06,3.83,3.91,6.03,5.54l0.49,0.49
		c0,0,4.89,4.09,5.06,4.09c2.6,2.11,5.21,4.4,7.98,6.35l4.56,2.94l3.75,2.61c3.1,1.79,4.09,2.44,4.4,2.61h-0.16
		c0.37,0.19,0.75,0.35,1.14,0.49l0.65,0.49l2.44,1.31c6.13,3.67,12.63,6.67,19.4,8.96l3.42,1.14c2.07,0.85,4.19,1.56,6.35,2.12
		c64.87,24.29,126.49-18.42,143.93-32.11c0.08-0.09,0.19-0.14,0.31-0.16l5.21-4.56c2.12-1.8,4.72-4.09,6.52-5.54
		c-3.53,4.98-7.4,9.72-11.57,14.18c-21.35,21.75-45.86,40.16-72.7,54.61c-0.47,0.18-0.96,0.29-1.47,0.31
		c0.24-0.26,0.51-0.48,0.82-0.65l0.81-0.65c1.01-0.65,1.99-1.36,2.93-2.12c2.93-1.95,6.03-4.09,8.97-6.36l1.14-0.98
		c1.74-1.09,3.32-2.41,4.72-3.91l9.12-7.66c0,0,2.44-2.12,2.28-2.93l-0.14-0.49l-0.31-0.16c-0.66-0.27-1.41-0.14-1.96,0.31
		c-0.31,0-13.84,9.94-14.99,10.27l-1.96,1.3c-6.85,4.24-8.64,5.38-9.12,5.7c0.09,0,0.16-0.07,0.17-0.15c0,0,0,0,0-0.01l-1.8,0.98
		l-2.12,1.14l-1.63,0.98c-0.69,0.36-1.4,0.69-2.12,0.98h-0.16l-0.16,0.16c-0.97,0.79-2.07,1.4-3.26,1.8
		c-0.15,0.12-0.31,0.23-0.49,0.31c-0.39,0.19-0.78,0.4-1.14,0.64c-0.7,0.02-1.38,0.24-1.95,0.65l-0.17,0.16
		c-4.09,2.12-8.47,4.09-13.36,6.19l-9.46,3.74c-4.07,1.9-8.26,3.53-12.55,4.89l-4.89,1.8c0,0-3.75,1.14-3.91,1.14
		c-2.62,0.86-5.29,1.57-7.99,2.12l-5.05,1.14c-2.56,0.73-5.18,1.28-7.82,1.63c-1.95,0.49-4.07,0.66-6.19,0.98l-3.42,0.49l-6.85,0.17
		l-6.52,0.16c-5.9,0.05-11.8-0.44-17.62-1.47c2.94-0.16,7.17-0.49,7.17-0.49c7.43-0.35,14.83-1.09,22.17-2.24l9.12-1.15
		c4.89-0.81,7.82-1.62,12.72-2.77c1.47-0.31,4.24-1.63,3.91-2.44c-0.33-0.82-5.86,0-6.68,0.16c-1.47,0.33-10.59,1.8-10.59,1.8
		c-7.99,0.98-15.49,1.96-18.42,2.12c-2.77,0.33-6.52,0.33-11.09,0.65c-3.58,0.33-13.04,0-13.04-0.81c0-0.98,9.12-2.12,12.55-2.12
		c2.6-0.17,5.38-0.31,7.82-0.66c3.05-0.1,6.1-0.37,9.12-0.81l8.31-0.82c7.81-1.3,15.53-3.04,23.15-5.21l9.78-2.61l7.82-2.28
		l2.93-0.98l8.64-2.93l1.47-0.49l1.95-0.98h0.16l0.16-0.16v-0.16c0.31-0.49,0.16-0.81-0.16-1.3l-0.65-0.49l-3.26,0.81l-1.8,0.31
		l-3.75,1.14c-2.13,0.4-4.21,1.06-6.19,1.95c-6.68,1.47-13.36,2.93-20.21,4.09c-6.35,1.3-12.88,2.28-19.23,3.26l-0.16,0.16
		l-3.26,0.31l-1.63,0.16c-4.98,0.58-9.98,0.91-15,0.98l-2.28,0.31c-0.6-0.06-1.21-0.01-1.79,0.16v-0.16h-6.67l-6.03-0.16
		l-10.43-0.49c-3.41-0.39-6.84-0.5-10.26-0.31c0-0.16-8.81-1.79-10.6-1.95l-10.59-2.28c-0.96-0.31-1.94-0.53-2.94-0.66l-4.4-1.3
		c-1.97-0.35-3.89-0.95-5.71-1.79l-3.1-0.98c-4.05-1.12-7.94-2.76-11.57-4.89c-1.19-0.44-2.33-0.99-3.43-1.63
		c2.45,0.49,6.36,1.63,6.36,1.63l6.36,1.63c11.06,2.89,22.27,5.18,33.58,6.84l3.74,0.65v-0.17c0.31,0.13,0.64,0.19,0.98,0.17
		c8.81,0.98,16.96,1.63,25.59,2.28l2.12,0.17l3.59,0.16c2.28,0,4.4,0,6.36-0.16c2.94,0.11,5.88,0.05,8.81-0.17
		c2.62,0,5.23-0.16,7.82-0.49c1.96-0.31,2.6-1.14,2.12-1.96c-1.15-1.79-7.5-0.98-7.5-0.98h-11.09c-5.05,0-9.94-0.49-14.99-0.98
		l-7.5-0.49c-11.05-0.76-22.04-2.18-32.92-4.23c-8.76-1.72-17.37-4.11-25.75-7.17c0,0-4.09-1.63-3.59-2.44
		c0.49-0.65,6.35,1.63,9.78,2.12c0.81,0,6.19,1.14,11.74,2.28c16.62,3.1,16.79,3.1,16.79,3.1l8.96,1.3
		c4.8,0.79,9.65,1.28,14.51,1.47c1.34,0.33,2.71,0.5,4.09,0.49l3.74,0.31c9.97,0.96,19.99,1.29,30,0.98h2.12l1.47-0.16l3.1-0.16
		c0.82-0.01,1.63-0.07,2.44-0.17h2.44c0,0,2.28-0.16,2.44-0.16l9.12-1.63c10.27-1.8,10.43-1.8,10.43-1.8l2.6-1.14l0.16-0.49
		l-0.16-0.98l-0.31-0.31l-2.12-0.17c-5.38,0.98-10.76,1.47-15.32,1.96c-2.86,0.44-5.75,0.71-8.64,0.81h-3.27l-7.5-0.16
		c-3.11-0.06-6.21-0.28-9.29-0.65c-2.95-0.05-5.89-0.27-8.81-0.65c-1.14-0.16-1.63-0.31-1.95-0.31l-2.12-0.31l-2.61-0.66h-0.49
		c-0.77-0.04-1.53-0.14-2.28-0.31l-1.3-0.31c-3.25-0.68-6.46-1.56-9.61-2.63c-2.75-1.06-5.6-1.88-8.49-2.45
		c-10.1-3.42-12.55-4.4-13.21-4.4l0.16-0.16l-6.35-2.28c-4.28-1.45-8.47-3.13-12.56-5.05l-9.29-4.24l-3.91-1.79l-2.93-1.47
		l-6.52-3.59l-1.6-0.99c-1.42-0.54-2.74-1.31-3.91-2.28c-10.06-5.56-19.28-12.53-27.37-20.7c0,0-0.65-0.81-0.98-1.31
		c4.4,3.43,8.97,6.36,13.04,8.97l9.12,6.03c8.08,4.79,16.47,9.03,25.1,12.72l3.1,1.47l12.22,5.22l11.25,4.56
		c0,0,1.14,0.49,0.98,0.49l0.65,0.31c6.19,2.28,12.72,4.24,18.91,6.03l6.2,1.63l9.61,2.6l7.66,1.63c0,0,1.95-0.31,1.47-1.63
		c-0.65-1.47-6.19-2.93-6.19-2.93c-12.39-3.1-20.05-6.03-25.75-7.82c-17.22-6.12-33.99-13.41-50.2-21.84l-4.56-2.44l-2.93-1.63
		c-5.71-3.41-11.21-7.16-16.47-11.24c-1.79-1.31-2.28-1.63-2.44-1.8v0.16l-5.87-5.06l-1.96-1.63c2.12,1.14,7.49,4.56,7.49,4.56
		c10.43,6.36,18.42,10.92,26.25,15c2.77,1.63,5.87,2.93,8.97,4.4c2.77,1.3,5.54,2.44,8.31,4.09l1.15,0.49
		c4.67,2.22,9.46,4.18,14.34,5.87c6.34,2.82,12.81,5.33,19.4,7.5l-0.31-0.16l14.51,4.56c19.88,6.19,19.88,6.19,20.05,6.19l7.01,1.79
		c3.59,0.82,7.34,1.63,11.08,2.45c1.96,0.31,5.71,0,5.71-1.47c0-1.14-6.2-2.61-7.34-2.94c-8.87-2.06-17.58-4.73-26.08-7.99
		l-3.1-0.98c-1.03-0.52-2.13-0.91-3.26-1.14l-5.05-2.28l-2.12-0.81l-6.36-2.77l-0.98-0.65c-0.25-0.2-0.52-0.36-0.81-0.49
		c-5.41-2.54-10.59-5.54-15.48-8.97c-8.64-5.38-17.62-11.25-26.43-17.44l-5.05-3.75c-3.91-2.93-5.38-3.91-5.87-4.24
		c-0.59-0.82-1.38-1.49-2.28-1.95c-0.69-0.49-1.35-1.04-1.96-1.63v-0.16l-0.16-0.16h-0.16c-0.76-0.41-1.47-0.91-2.12-1.47
		l-0.31-0.49c-9.64-7.56-18.84-15.67-27.55-24.29c-4.67-4.24-8.78-9.06-12.22-14.35c-3.1-4.56-4.09-5.87-4.4-6.35h0.16l-0.82-0.98
		c-0.75-1.43-1.63-2.79-2.61-4.07h0.16l-0.65-1.14c-0.28-0.78-0.6-1.54-0.98-2.28c7.18,9.12,13.37,16.63,19.24,22.82
		c12.53,12.29,25.87,23.73,39.93,34.23l3.1,2.28l3.91,3.42c4.24,3.42,7.17,4.56,11.57,7.82c2.77,2.12,6.52,4.4,9.46,6.52
		c3.87,2.59,7.9,4.93,12.06,7.01l7.5,4.4c2.6,1.47,7.5,2.61,6.85,0.98c-2.68-2.64-5.76-4.84-9.12-6.52
		c-6.68-3.91-8.97-6.19-9.61-6.35h0.31c-5.06-3.26-11.09-7.34-16.95-11.41l-0.65-0.49c-2.08-1.82-4.32-3.46-6.68-4.89l-1.79-1.47
		l-0.81-0.65l-3.1-2.28c-2.89-2.02-5.66-4.2-8.31-6.52l-4.4-3.59c-1.47-1.14-2.12-1.63-2.44-1.96c-2.32-2.21-4.77-4.28-7.33-6.19
		h0.16l-7.82-7.33l-2.12-1.79c-7.34-7.34-14.67-15.49-23.8-26.41l-0.31-0.65c0,0-2.28-3.42-3.75-5.7c1.31,0.98,2.61,2.12,2.61,2.12
		l7.66,7.01c13.37,12.88,15.97,15.32,16.46,15.65h-0.23c2.99,3.15,6.15,6.15,9.46,8.97l4.56,4.24l13.04,11.57l4.09,3.58
		c6.03,5.05,11.9,9.62,17.62,13.69l7.98,6.03c5.38,3.91,6.36,4.56,6.68,4.72h-0.16c3.72,2.81,7.58,5.42,11.57,7.82l5.69,3.58
		l0.82,0.49l3.91,1.96c0.98,0.49,1.3,0.82,1.63,0.82h-0.16c6.35,3.96,13.13,7.19,20.21,9.61c4.58,1.99,9.26,3.73,14.02,5.22
		l0.49,0.31c0.88,0.53,1.9,0.82,2.93,0.81l1.15-0.17l0.49-0.81v-0.16c-0.07-0.21-0.13-0.43-0.16-0.65c-0.71-0.52-1.48-0.95-2.28-1.3
		c-0.68-0.2-1.33-0.48-1.95-0.82c-0.76-0.62-1.65-1.07-2.61-1.3c-2.46-0.59-4.78-1.64-6.85-3.1c-3.12-1.36-6.17-2.88-9.12-4.56
		l-1.31-0.65l-0.98-0.49c-1.57-1.03-3.2-1.95-4.89-2.77l-4.89-3.1l-4.24-2.77c-1.94-1.41-3.95-2.72-6.03-3.91h0.14l-1.96-1.47
		c-3.61-2.37-7.09-4.92-10.43-7.66l-5.38-4.24c-4.09-3.42-4.89-4.07-5.05-4.24c0,0.09,0.07,0.16,0.16,0.16c0,0,0,0,0,0
		c-16.78-15.79-34.38-32.75-48.89-51.65c-2.47-3.13-4.75-6.39-6.85-9.78l-2.45-3.75l-3.26-5.22c-2.33-3.57-4.46-7.27-6.35-11.08
		l-2.61-4.89c-2.38-3.9-4.45-7.99-6.19-12.22l-1.14-2.61c-0.65-1.47-0.98-2.12-1.14-2.44c-0.39-1.6-0.88-3.18-1.47-4.72l-1.3-3.91
		c-2.61-7.49-4.4-13.84-6.03-19.88c-0.15-1.76-0.42-3.5-0.81-5.22l-0.31-1.79l-0.16-1.31v-0.16c0.18,1.07,0.5,2.12,0.98,3.1
		l0.98,3.43l3.59,9.61l1.96,4.56c0.94,2.9,2.2,5.69,3.75,8.31l2.12,4.09l3.42,6.68l2.44,4.56l3.58,6.36l0.98,1.63
		c4.24,7.01,5.22,8.64,5.54,9.12c0-0.09-0.07-0.16-0.15-0.16c0,0,0,0-0.01,0c1.33,2.61,2.85,5.12,4.56,7.5l2.94,4.89
		c4.72,7.01,9.44,13.36,15.16,21.03l0.81,1.14l1.14,1.31l1.79,2.12c0,0,2.28,2.77,2.28,2.61c0.34,0.66,0.78,1.27,1.3,1.79
		c0,0,0.98,1.14,1.14,1.31l0.17,0.16l0.31,0.31c0.2,0.25,0.36,0.52,0.49,0.82l1.47,1.47c0.99,1.18,2.08,2.27,3.26,3.26h-0.16
		c0.59,0.91,1.37,1.69,2.28,2.28v0.16c1.34,1.74,2.81,3.38,4.4,4.89l1.96,1.79l5.54,6.03c5.22,4.89,4.89,6.19,11.08,10.59
		c0,0,6.2,5.71,7.02,4.56c0.65-0.81-0.82-3.58-3.59-6.35l-6.52-6.36c-6.75-6.26-13.01-13.01-18.75-20.21l-5.05-6.36
		c-2.53-2.78-4.87-5.72-7.01-8.81c-1.47-2.09-3.04-4.1-4.72-6.03h0.16l-1.8-2.6c-6.32-8.51-12.04-17.44-17.12-26.74
		c-4.72-8.47-9.12-16.63-14.35-26.24c-0.97-1.8-1.84-3.65-2.61-5.54l-0.16-0.49c-0.31-0.65-6.84-17.28-7.33-17.93L28.43,183.49z"/>
	<path id="Path_28" d="M55.32,558.86h20.2v4.6h-7.5v22h-5.24v-22h-7.46V558.86z"/>
	<path id="Path_29" d="M79.98,558.86h5.23v10.51h9.96v-10.51h5.23v26.59h-5.24v-11.49h-9.96v11.49h-5.23V558.86z"/>
	<path id="Path_30" d="M106.84,558.86h17.83v4.6h-12.58v5.88h7.69v3.94h-7.7v7.6h12.58v4.58h-17.82V558.86z"/>
	<path id="Path_31" d="M153.26,585.77c0.17,1.02,0.72,1.94,1.55,2.57c1.21,0.64,2.59,0.93,3.96,0.81c0.54,0,1.08-0.03,1.62-0.09
		v3.33h-2.42c-1.67,0.04-3.33-0.15-4.95-0.57c-1.08-0.26-2.09-0.76-2.94-1.47c-0.61-0.56-1.1-1.24-1.42-2
		c-0.34-0.93-0.54-1.91-0.59-2.9c-1.47-0.3-2.85-0.92-4.04-1.82c-1.55-1.19-2.76-2.78-3.5-4.6c-0.82-2.23-1.2-4.59-1.12-6.96
		c-0.11-2.68,0.42-5.35,1.54-7.79c0.97-1.93,2.49-3.54,4.35-4.63c1.72-0.93,3.66-1.38,5.61-1.31c2.05-0.08,4.09,0.38,5.91,1.34
		c1.92,1.11,3.46,2.76,4.43,4.75c1.11,2.45,1.64,5.12,1.54,7.81c0.02,1.8-0.2,3.6-0.66,5.35c-0.28,1.12-0.71,2.19-1.3,3.18
		c-0.57,0.93-1.27,1.76-2.09,2.48c-0.75,0.69-1.6,1.27-2.52,1.71c-0.95,0.41-1.96,0.68-2.98,0.82 M151.02,562.9
		c-1.72-0.02-3.35,0.76-4.4,2.12c-1.35,2.07-1.97,4.54-1.76,7c-0.29,2.77,0.51,5.54,2.24,7.72c1.07,1.07,2.54,1.67,4.06,1.64
		c2.38-0.05,4.5-1.55,5.35-3.78c0.6-1.69,0.87-3.49,0.8-5.28c0.24-2.56-0.38-5.13-1.76-7.3c-1.09-1.39-2.78-2.18-4.54-2.14"/>
	<path id="Path_32" d="M167.32,558.86h5.23v16.22c-0.13,1.64,0.38,3.27,1.41,4.55c1,1.03,2.39,1.58,3.82,1.51
		c0.95,0.02,1.89-0.19,2.74-0.61c0.83-0.44,1.51-1.13,1.92-1.98c0.51-1.08,0.76-2.27,0.72-3.46v-16.22h5.28v16.99
		c0.18,2.75-0.78,5.46-2.66,7.49c-2.14,1.88-4.94,2.82-7.78,2.62c-1.88,0.01-3.74-0.31-5.51-0.94c-0.83-0.29-1.6-0.74-2.26-1.32
		c-0.88-0.83-1.59-1.82-2.09-2.93c-0.62-1.52-0.9-3.15-0.83-4.78L167.32,558.86z"/>
	<path id="Path_33" d="M194.71,558.86h17.84v4.6h-12.58v5.88h7.69v3.94h-7.69v7.6h12.58v4.58h-17.83L194.71,558.86z"/>
	<path id="Path_34" d="M217.47,558.86h17.83v4.6h-12.58v5.88h7.69v3.94h-7.69v7.6h12.58v4.58h-17.83V558.86z"/>
	<path id="Path_35" d="M240.14,558.86h5.56l10.84,17.85v-17.85h5.23v26.59h-5.25l-11.15-18.54v18.54h-5.23L240.14,558.86z"/>
	<path id="Path_36" d="M267.86,564.51v-5.7h5.23v5.7l-1.69,5.7h-1.93"/>
	<path id="Path_37" d="M282.74,578.03c0.66,1.12,1.55,2.08,2.6,2.83c0.91,0.55,1.96,0.82,3.02,0.8c1.18,0.07,2.34-0.3,3.26-1.04
		c0.74-0.6,1.17-1.49,1.17-2.44c0-0.82-0.33-1.6-0.92-2.17c-1.24-0.91-2.67-1.53-4.18-1.81c-2.3-0.47-4.48-1.44-6.36-2.85
		c-1.54-1.3-2.42-3.23-2.39-5.24c-0.05-2.11,0.82-4.14,2.38-5.55c1.82-1.55,4.16-2.34,6.55-2.2c1.45-0.02,2.88,0.24,4.22,0.79
		c1.16,0.48,2.23,1.17,3.15,2.03c0.65,0.67,1.21,1.43,1.67,2.25l-4.4,1.79c-0.6-0.92-1.37-1.71-2.27-2.32
		c-0.77-0.49-1.67-0.74-2.59-0.73c-1.03-0.05-2.03,0.3-2.8,0.98c-0.68,0.6-1.06,1.47-1.05,2.37c0,0.73,0.31,1.43,0.87,1.91
		c1.29,0.84,2.75,1.4,4.27,1.65c1.82,0.39,3.57,1.05,5.19,1.98c1.14,0.71,2.06,1.73,2.65,2.93c0.57,1.15,0.88,2.43,0.88,3.72
		c-0.02,1.42-0.41,2.82-1.13,4.05c-0.77,1.37-1.94,2.46-3.36,3.12c-3.13,1.39-6.69,1.46-9.87,0.19c-1.29-0.57-2.45-1.4-3.4-2.45
		c-0.72-0.84-1.34-1.76-1.83-2.75L282.74,578.03z"/>
	<path id="Path_38" d="M320.38,558.86h5.53l8.66,26.59h-5.11l-2.03-6.25h-8.52l-2.03,6.25h-5.13L320.38,558.86z M323.16,566.04
		l-3.05,9.26h6.05L323.16,566.04z"/>
	<path id="Path_39" d="M335.25,558.86h5l3.64,15.22l3.65-15.22h5.98l3.68,15.35l3.61-15.35h5.03l-6.32,26.59h-4.11l-4.83-20.3
		l-4.9,20.3h-4.09L335.25,558.86z"/>
	<path id="Path_40" d="M375.68,558.86h5.51l8.66,26.59h-5.1l-2.03-6.25h-8.52l-2.03,6.25h-5.11L375.68,558.86z M378.46,566.04
		l-3.05,9.26h6.05L378.46,566.04z"/>
	<path id="Path_41" d="M393.89,558.86h7.18c2.7-0.15,5.4,0.15,8,0.87c1.44,0.55,2.66,1.56,3.46,2.87c0.84,1.39,1.26,2.98,1.23,4.6
		c0.06,1.4-0.33,2.78-1.11,3.94c-1.01,1.23-2.35,2.16-3.86,2.67l4.78,11.64h-5.19l-4.45-10.67h-4.83v10.65h-5.23L393.89,558.86z
		 M399.13,563.49v7.18h4.18c1.42,0.04,2.81-0.43,3.92-1.31c0.71-0.6,1.11-1.49,1.06-2.42c0.01-0.96-0.43-1.87-1.18-2.46
		c-1.12-0.75-2.46-1.1-3.8-0.98L399.13,563.49z"/>
	<path id="Path_42" d="M418.86,558.86h9.66c2.17-0.03,4.3,0.55,6.15,1.68c1.82,1.13,3.26,2.78,4.13,4.74
		c0.95,2.09,1.44,4.35,1.42,6.65c0.03,2.2-0.38,4.39-1.22,6.42c-0.69,1.72-1.76,3.26-3.15,4.49c-1.05,0.85-2.26,1.49-3.56,1.89
		c-1.49,0.49-3.05,0.73-4.62,0.72h-8.81L418.86,558.86z M424.14,563.35v17.41h3.62c1.23,0.02,2.43-0.34,3.44-1.03
		c1-0.68,1.8-1.62,2.32-2.71c0.8-1.62,1.2-3.41,1.18-5.22c0.11-2.27-0.7-4.48-2.24-6.15c-1.51-1.54-3.6-2.38-5.76-2.3L424.14,563.35
		z"/>
	<path id="Path_43" d="M448.61,578.03c0.66,1.12,1.55,2.08,2.6,2.83c0.91,0.55,1.96,0.82,3.02,0.8c1.18,0.07,2.34-0.3,3.26-1.04
		c0.74-0.6,1.17-1.49,1.17-2.44c0-0.82-0.33-1.6-0.92-2.17c-1.24-0.91-2.67-1.53-4.18-1.81c-2.3-0.47-4.48-1.44-6.36-2.85
		c-1.54-1.3-2.42-3.23-2.39-5.24c-0.05-2.11,0.82-4.14,2.39-5.55c1.82-1.55,4.16-2.34,6.55-2.2c1.45-0.02,2.88,0.25,4.22,0.79
		c1.16,0.48,2.23,1.17,3.15,2.03c0.65,0.67,1.21,1.43,1.67,2.25l-4.4,1.79c-0.6-0.92-1.37-1.71-2.27-2.32
		c-0.77-0.49-1.67-0.74-2.59-0.73c-1.03-0.05-2.03,0.3-2.8,0.98c-0.68,0.6-1.06,1.47-1.05,2.37c0,0.73,0.31,1.43,0.87,1.91
		c1.29,0.84,2.75,1.4,4.27,1.65c1.82,0.39,3.57,1.05,5.18,1.98c1.14,0.71,2.06,1.73,2.65,2.93c0.57,1.15,0.88,2.43,0.88,3.72
		c-0.02,1.42-0.41,2.82-1.13,4.05c-0.77,1.37-1.94,2.46-3.36,3.12c-3.13,1.39-6.69,1.46-9.87,0.19c-1.29-0.57-2.45-1.4-3.4-2.45
		c-0.72-0.83-1.34-1.76-1.83-2.75L448.61,578.03z"/>
	<path id="Path_44" d="M106.45,612.22h16.3v4.6h-11.01v6.92h6.35v4.59h-6.36v10.47h-5.28V612.22z"/>
	<path id="Path_45" d="M137.06,611.71c2.09-0.09,4.17,0.35,6.05,1.26c1.97,1.06,3.57,2.69,4.59,4.69c1.15,2.51,1.69,5.26,1.57,8.02
		c0.27,3.68-0.87,7.32-3.18,10.19c-2.16,2.33-5.24,3.59-8.41,3.46c-3.22,0.12-6.34-1.16-8.54-3.52c-2.36-2.88-3.52-6.56-3.26-10.27
		c-0.04-2.49,0.41-4.97,1.32-7.29c0.51-1.24,1.25-2.37,2.18-3.33c0.96-1.02,2.13-1.83,3.42-2.37c1.35-0.56,2.79-0.84,4.25-0.82
		 M137.57,616.26c-1.74-0.03-3.38,0.77-4.44,2.15c-1.35,2.12-1.97,4.62-1.75,7.12c-0.22,2.47,0.41,4.95,1.77,7.02
		c1.1,1.38,2.78,2.18,4.55,2.14c1.71,0.02,3.34-0.77,4.38-2.13c1.35-2.06,1.96-4.52,1.75-6.97c0.28-2.72-0.49-5.44-2.13-7.63
		C140.63,616.84,139.13,616.22,137.57,616.26"/>
	<path id="Path_46" d="M154.27,612.22h7.18c2.7-0.15,5.4,0.15,8.01,0.87c1.44,0.55,2.66,1.56,3.46,2.87
		c0.84,1.39,1.26,2.98,1.23,4.6c0.06,1.4-0.33,2.78-1.11,3.94c-1.01,1.23-2.35,2.16-3.86,2.67l4.78,11.64h-5.19l-4.43-10.65h-4.83
		v10.65h-5.24V612.22z M159.5,616.85v7.18h4.19c1.42,0.04,2.8-0.43,3.91-1.31c0.71-0.6,1.11-1.49,1.06-2.42
		c0.01-0.96-0.43-1.87-1.18-2.46c-1.12-0.75-2.45-1.1-3.79-0.98L159.5,616.85z"/>
	<path id="Path_47" d="M190.53,612.22h17.83v4.6h-12.58v5.88h7.69v3.94h-7.69v7.6h12.58v4.58h-17.83V612.22z"/>
	<path id="Path_48" d="M213.19,612.22h5.56l10.84,17.85v-17.85h5.23v26.59h-5.25l-11.15-18.54v18.54h-5.23V612.22z"/>
	<path id="Path_49" d="M239.35,612.22h20.2v4.6h-7.51v22h-5.23v-22h-7.46V612.22z"/>
	<path id="Path_50" d="M264.01,612.22h17.83v4.6h-12.58v5.88h7.69v3.94h-7.69v7.6h12.58v4.58h-17.83V612.22z"/>
	<path id="Path_51" d="M286.81,612.22h7.18c2.7-0.15,5.4,0.15,8.01,0.87c1.44,0.55,2.66,1.56,3.46,2.87
		c0.84,1.38,1.27,2.98,1.24,4.6c0.06,1.4-0.33,2.78-1.11,3.94c-1.01,1.23-2.35,2.16-3.86,2.67l4.78,11.64h-5.18l-4.43-10.65h-4.83
		v10.65h-5.23L286.81,612.22z M292.04,616.85v7.18h4.19c1.42,0.04,2.81-0.43,3.92-1.31c0.71-0.6,1.11-1.49,1.06-2.42
		c0.01-0.96-0.42-1.87-1.18-2.46c-1.12-0.75-2.46-1.1-3.8-0.98L292.04,616.85z"/>
	<path id="Path_52" d="M311.73,612.22h8.41c2.26-0.09,4.52,0.16,6.71,0.73c3.04,0.94,5.06,3.81,4.94,6.99
		c0.01,1.29-0.25,2.57-0.78,3.75c-0.43,0.9-1.06,1.7-1.85,2.32c-0.75,0.63-1.59,1.14-2.49,1.51c-1.59,0.61-3.29,0.91-5,0.87h-4.65
		v10.42h-5.28L311.73,612.22z M317.02,616.8v7.24h4.27c1.44,0.05,2.86-0.42,3.99-1.32c1.35-1.27,1.42-3.4,0.14-4.75
		c-0.07-0.07-0.14-0.14-0.21-0.21c-1.12-0.73-2.45-1.06-3.78-0.94L317.02,616.8z"/>
	<path id="Path_53" d="M336.84,612.22h7.17c2.7-0.15,5.4,0.15,8.01,0.87c1.44,0.55,2.66,1.56,3.46,2.87
		c0.84,1.39,1.26,2.98,1.23,4.6c0.06,1.4-0.33,2.78-1.11,3.94c-1.01,1.23-2.35,2.16-3.86,2.67l4.78,11.64h-5.19l-4.43-10.65h-4.83
		v10.65h-5.23V612.22z M342.08,616.85v7.18h4.19c1.42,0.04,2.81-0.43,3.92-1.31c0.71-0.6,1.11-1.49,1.06-2.42
		c0.01-0.96-0.43-1.87-1.18-2.46c-1.12-0.75-2.45-1.1-3.79-0.98L342.08,616.85z"/>
	<rect id="Rectangle_81" x="362.18" y="612.22" width="5.23" height="26.59"/>
	<path id="Path_54" d="M377.48,631.39c0.66,1.12,1.55,2.08,2.6,2.83c0.91,0.55,1.96,0.82,3.02,0.8c1.18,0.07,2.34-0.3,3.26-1.04
		c0.74-0.6,1.17-1.49,1.17-2.44c0-0.82-0.33-1.6-0.92-2.17c-1.24-0.91-2.67-1.53-4.18-1.81c-2.3-0.47-4.48-1.44-6.36-2.85
		c-1.54-1.3-2.42-3.23-2.39-5.24c-0.05-2.11,0.82-4.14,2.39-5.55c1.82-1.55,4.16-2.34,6.55-2.2c1.45-0.02,2.88,0.25,4.22,0.79
		c1.16,0.48,2.23,1.17,3.15,2.03c0.65,0.67,1.21,1.43,1.67,2.25l-4.4,1.79c-0.6-0.92-1.37-1.71-2.27-2.32
		c-0.77-0.49-1.67-0.74-2.59-0.73c-1.03-0.05-2.03,0.3-2.8,0.98c-0.68,0.6-1.06,1.47-1.05,2.37c0,0.73,0.31,1.43,0.87,1.91
		c1.29,0.84,2.75,1.4,4.27,1.65c1.82,0.39,3.57,1.05,5.18,1.98c1.14,0.71,2.06,1.73,2.65,2.93c0.57,1.15,0.88,2.43,0.88,3.72
		c-0.02,1.42-0.41,2.82-1.13,4.05c-0.77,1.37-1.94,2.46-3.36,3.12c-3.13,1.39-6.69,1.46-9.87,0.19c-1.29-0.57-2.45-1.4-3.4-2.45
		c-0.72-0.83-1.34-1.76-1.83-2.75L377.48,631.39z"/>
	<path id="Path_55" d="M397.74,612.22h17.83v4.6h-12.58v5.88h7.69v3.94h-7.7v7.6h12.58v4.58h-17.83L397.74,612.22z"/>
</g>
</svg>
