<?xml version="1.0" encoding="UTF-8"?>
<svg id="Layer_1" data-name="Layer 1" xmlns="http://www.w3.org/2000/svg" viewBox="0 0 350 225">
  <defs>
    <style>
      .cls-1 {
        fill: #1b4690;
      }

      .cls-1, .cls-2, .cls-3 {
        stroke-width: 0px;
      }

      .cls-2 {
        fill: #fff;
      }

      .cls-3 {
        fill: #ef7226;
      }
    </style>
  </defs>
  <path class="cls-2" d="m165.26,16.5c-10.22.97-20.21,3.62-29.57,7.84-4.21,1.86-8.28,4.04-12.16,6.52-3.68,2.27-7.18,4.83-10.46,7.66-2.95,2.33-5.63,5.03-8.27,7.73-2.37,2.48-4.59,5.1-6.67,7.83-1.81,2.41-3.56,4.88-5.14,7.46-1.43,2.24-2.73,4.56-3.95,6.93-.21.33-.37.7-.46,1.08-.19.21-.34.45-.44.71-.98,2.09-1.98,4.15-2.77,6.31-.52,1.1-.9,2.26-1.33,3.4-.39,1.21-.94,2.4-1.16,3.66h-.09c-.62,2.19-1.31,4.37-1.79,6.6-.49,2.15-1.03,4.3-1.25,6.5h-.09c-.26,2.07-.59,4.13-.75,6.21-.27,2.07-.42,4.15-.44,6.24h-.06c.04,2.01-.05,4.02.03,6.01.03,2.02.15,4.05.36,6.06s.43,4.03.73,6.05.7,4.04,1.12,6.05c.47,1.97.96,3.93,1.51,5.89.1.24,0,.63.23.78.6,2.01,1.29,4.03,1.99,6.01.87,2.23,1.76,4.47,2.77,6.65,1.05,2.29,2.18,4.54,3.43,6.73,1.26,2.32,2.68,4.54,4.12,6.75l.2.1.26-.09-.28.14c1.57,2.53,3.42,4.88,5.3,7.2,2.12,2.6,4.39,5.08,6.75,7.45s4.85,4.56,7.43,6.66c3.11,2.49,6.37,4.8,9.75,6.9,3.57,2.25,7.3,4.23,11.15,5.95l-.11.17c.39-.16.55.26.93.24,3.9,1.63,7.84,3.18,11.93,4.3,4.5,1.32,9.1,2.31,13.75,2.94v.02c4.88.64,9.8.93,14.72.87,4.88-.11,9.79-.45,14.59-1.37,3.85-.52,7.62-1.52,11.36-2.56.76-.1,1.41-.56,2.18-.66,4.12-1.34,8.15-2.95,12.05-4.83,3.65-1.75,7.2-3.72,10.61-5.9,3.07-1.98,6.03-4.14,8.87-6.45,2.6-2.13,5.08-4.4,7.44-6.8,2.25-2.22,4.37-4.57,6.36-7.04,1.68-2.05,3.24-4.2,4.78-6.36,1.38-2.04,2.69-4.12,3.94-6.24,1.21-2.09,2.32-4.25,3.4-6.42.92-1.92,1.79-3.87,2.58-5.85h0c.55-1.43,1.11-2.85,1.6-4.3.17-.52.41-1.05.38-1.59-.27-.07-.54-.16-.8-.26.33.11.66.2,1,.28.51-1.87,1.14-3.7,1.61-5.58s.94-3.85,1.31-5.79c.38-1.64.56-3.32.89-4.97.26-2.02.47-4.05.63-6.08.17-1.86.29-3.72.28-5.59s.03-3.76-.04-5.64c.02-1.77-.19-3.53-.32-5.29-.16-2.2-.54-4.38-.76-6.58h-.08c-.22-1.85-.64-3.66-1-5.49-.6-2.5-1.17-5-1.97-7.45-.66-2.19-1.42-4.35-2.24-6.48-.14-.24-.02-.65-.3-.78-.92-2.31-1.95-4.63-3.06-6.88-1.3-2.72-2.75-5.36-4.36-7.91-1.67-2.72-3.42-5.42-5.42-7.89-2.09-2.96-4.56-5.65-7.01-8.33-2.83-2.92-5.82-5.67-8.96-8.26-3.22-2.65-6.62-5.06-10.18-7.23.03-.04.09-.13.11-.17-.46-.14-.94-.25-1.31-.58-3.84-2.29-7.83-4.32-11.95-6.07l-.56-.13.02-.11c-4.79-1.98-9.73-3.57-14.77-4.75-10.51-2.48-21.37-3.19-32.11-2.11"/>
  <path class="cls-2" d="m106.41,85.47c7.06-1.21,14.1-2.48,21.15-3.69,1.2-.18,2.61-.15,3.53.76s.82,2.31.56,3.47c-1.74,6.88-3.49,13.76-5.23,20.65,3.07-2.81,6.65-5.11,10.63-6.38,3.75-1.2,7.7-1.6,11.61-1.2,3.49.42,6.98,1.94,9.17,4.78-2.01.41-3.97,1.39-5.16,3.11-1.39,1.82-1.61,4.26-1.16,6.44.16.34.27.69.33,1.06-2.4.86-4.68,2.38-5.96,4.63-1.25,2.25-1.45,4.93-.54,7.34.75,1.97,2.64,3.32,4.66,3.78,1.1.35,2.25.23,3.4.23l-.92.03c-4.92,4.79-10.87,8.38-17.4,10.5-4.97,1.64-10.2,2.45-15.41,2.73-4.03.14-8.25-.07-11.93-1.86-2.6-1.25-4.62-3.66-5.21-6.51-.86-3.72.1-7.51,1.08-11.11,2.51-9.75,5.03-19.5,7.55-29.26.59-2.19.6-4.71-.65-6.67-.87-1.41-2.35-2.31-3.92-2.77l-.18-.07"/>
  <path class="cls-2" d="m134.11,110.49c-3.75.63-7.16,2.65-9.83,5.31-.16.14-.27.34-.3.55-.84,3.4-1.69,6.81-2.54,10.22-.34,1.57-.58,3.27.07,4.79.47,1.09,1.57,1.77,2.72,1.95,1.68.2,3.38.01,4.97-.55,2.9-.99,5.4-2.94,7.35-5.27,2.82-3.38,4.54-7.72,4.56-12.14.02-1.52-.52-3.14-1.8-4.05-1.5-1.05-3.46-1.1-5.21-.81"/>
  <path class="cls-2" d="m220.35,85.89c3.83-1.53,8.05-2.47,12.18-1.78,2.46.39,4.89,1.68,6.2,3.87,1.71,2.8,1.67,6.27,1.16,9.41-.99,5.1-2.04,10.2-3.04,15.3-.36,2.01-.29,4.26.95,5.98,1.08,1.52,2.93,2.26,4.71,2.5l-.38.12c-8.46,1.48-16.91,2.96-25.36,4.47,1.57-7.52,3.14-15.03,4.71-22.54.35-1.52.64-3.18.02-4.67-.5-1.21-1.8-1.91-3.07-1.94-2.09-.07-4.12.78-5.81,1.96-2.79,2-4.51,5.2-5.26,8.49-1.52,7.02-3.01,14.08-4.55,21.11-4.34.78-8.69,1.55-13.04,2.31-.96.14-2.05.16-2.86-.46-.68-.51-.98-1.38-1.03-2.19-.1-1.53.38-3,.66-4.48,1.09-5.12,2.2-10.24,3.29-15.37.28-1.4.41-2.98-.32-4.26-.62-1.08-1.9-1.59-3.1-1.57-2.03,0-3.99.83-5.63,1.98-2.72,1.97-4.42,5.08-5.19,8.3-1.6,7.13-3.14,14.27-4.76,21.4-3.84.64-7.67,1.35-11.52,1.99-1.01.18-2.03.43-3.06.31-.9-.05-1.69-.61-2.02-1.45-.5-1.31-.02-2.68.24-3.97l.1-.34c2.4-.43,4.59-1.64,6.48-3.15.62.42,1.05,1.34,1.89,1.23,2.24-.23,4.44-.85,6.69-1.01l.12-.42c-.9-.52-1.75-1.13-2.54-1.81-.8-.71-1.69-1.34-2.35-2.18.06-.24.17-.47.33-.66,1.02-1.55,1.97-3.18,2.49-4.97.18-.73.34-1.61-.17-2.24-.34-.42-.94-.39-1.43-.39-1.17.1-2.3.49-3.29,1.12.77,1.05.37,2.42-.04,3.52-.13.26-.19.9-.63.65-1.38-1.61-2.61-3.34-3.68-5.16-.92-1.6-1.62-3.49-1.12-5.34.55-1.7,2.78-2.48,4.3-1.6.71.41,1.08,1.19,1.22,1.97.9-.67,1.54-1.79,1.31-2.94-.29-1.52-1.63-2.6-3.06-3.01.61-2.61,1.16-5.26,1.77-7.88,3.36-.6,6.73-1.16,10.09-1.76,1.23-.2,2.51-.47,3.75-.16.86.16,1.59.72,1.97,1.52.44.99.28,2.09.11,3.12,1.93-1.75,4.03-3.29,6.27-4.62,3.58-2.12,7.43-3.95,11.58-4.61,2.5-.36,5.2-.38,7.5.78,1.57.79,2.72,2.22,3.17,3.92,3.82-3.57,8.25-6.42,13.1-8.39"/>
  <path class="cls-2" d="m151.09,122.29c-.28-1.75.62-3.77,2.35-4.4,1.42,2.41,3.1,4.64,5.03,6.67-1.11.78-2.53.99-3.86.92-1.71-.09-3.35-1.44-3.53-3.19h0Z"/>
  <path class="cls-1" d="m165.26,16.5c5.4-.57,10.85-.65,16.27-.26-.06,1.38.02,2.76-.16,4.13-.03,2.21-.06,4.42-.1,6.63-.24,2.9-.16,5.81-.21,8.72-.28,3.25-.08,6.54-.34,9.78-.03,2-.08,4.01-.08,6.01-.24,2.42-.11,4.85-.2,7.28.06,1.05-.18,2.09-.15,3.14-.01,1.86-.05,3.73-.07,5.59-.28,3.04-.03,6.11-.33,9.15-.03,2.15-.07,4.29-.09,6.44-.12,1.32-.17,2.64-.14,3.96.26.58.94.88,1.28,1.44,1.21-.52,2.21-1.46,3.38-2.09.54-.26.62-.89.69-1.41.46-2.71,1.02-5.41,1.51-8.1.16-1.03.52-2.04.4-3.1.06.19.12.38.19.58,0-.64.07-1.28.24-1.9,3.15-16.82,6.3-33.64,9.46-50.46.2-1.14.54-2.25.57-3.4,5.05,1.18,9.99,2.77,14.78,4.75l-.02.11c-.09.47-.23.93-.43,1.38-6.56,18.59-13.13,37.18-19.71,55.76-.28.88-.74,1.72-.78,2.66,2.12-.66,4.31-1.1,6.52-1.31,1.61-2.98,3.17-5.98,4.76-8.98.57-1.31,1.4-2.47,1.9-3.8v.61c.26-1.16.94-2.15,1.46-3.19,5.62-10.61,11.22-21.22,16.8-31.85.85-1.51,1.57-3.1,2.47-4.58l.72.26c3.56,2.17,6.96,4.58,10.18,7.23-1.5,2.25-3.14,4.4-4.69,6.61-8.94,12.53-17.88,25.07-26.84,37.6-.2.25-.32.54-.37.85,1.34.24,2.55.91,3.64,1.69.44.28.87-.14,1.21-.37.78-.6,1.63-1.13,2.42-1.71,1.41-1.57,2.85-3.1,4.27-4.65.41-.49.93-.91,1.18-1.51l.12.18c2.25-2.61,4.65-5.12,6.98-7.68,3-3.38,6.15-6.61,9.15-9.98,2.95-3.21,5.9-6.42,8.85-9.63,1-1.05,1.87-2.24,3.02-3.14,2.44,2.68,4.9,5.37,7.01,8.33-.54.05-.81.58-1.2.89-2.18,1.78-4.2,3.74-6.36,5.53-5.94,5.15-11.83,10.35-17.78,15.47-.19.19-.36.41-.52.61.48-.12.98-.18,1.47-.19,2.35-.09,4.72-.15,7.03.35.52.11,1.05.3,1.59.26.52-.24.89-.77,1.47-.91l-.26-.08c.25-.07.49-.19.69-.36,4.89-3.44,9.76-6.9,14.64-10.35,1.55-1.11,3.14-2.17,4.65-3.34,1.61,2.55,3.06,5.19,4.36,7.91l-.52.1c-6.17,3.56-12.33,7.12-18.48,10.7,1.31,1.49,2.61,3.03,3.44,4.87.1.36.47.09.68.02,4.5-2.16,9.04-4.26,13.55-6.4.61-.18,1.12-.61,1.75-.75l-.28-.12c.92-.07,1.64-.78,2.56-.92l-.28-.14c.38.1.52-.17.64-.48.28.13.16.54.3.78.82,2.13,1.58,4.29,2.24,6.48-6.51,2.44-13,4.95-19.52,7.38-.14.27-.21.58-.19.89,0,1.57.05,3.17-.28,4.73,1.05-.12,2.01-.58,3.03-.8,6.1-1.89,12.25-3.62,18.34-5.54l.37.16c.1.2.18.41.22.63.37,1.83.78,3.63,1,5.49-7.91,1.66-15.78,3.59-23.68,5.28-.35.82-.31,1.75-.48,2.61-.07.71-.35,1.4-.22,2.13.78-.32,1.65-.18,2.45-.44,4.77-.7,9.5-1.57,14.27-2.26.4-.06.81-.07,1.22-.03-.26-.06-.52-.12-.78-.18,1.55.08,3.04-.46,4.57-.59,1.15-.1,2.27-.42,3.42-.52.02.14.06.44.08.58.13,1.76.34,3.52.32,5.29-6.27.5-12.54,1.19-18.81,1.74-2.5.31-5.02.42-7.52.78-.04,1.34-.47,2.63-.5,3.96,1.77,0,3.55-.06,5.32-.08,2.41-.27,4.86-.03,7.28-.33,1.74-.03,3.47-.08,5.21-.09,1.31-.18,2.61-.12,3.92-.17,1.71,0,3.42-.22,5.13-.18,0,1.87-.12,3.73-.28,5.59-1.34-.03-2.68.04-4.01-.14-3.18-.12-6.38.02-9.55-.24-4.55-.02-9.1-.3-13.65-.28-.23,1.26-.38,2.54-.45,3.82.93.28,1.92.09,2.88.28,7.06.61,14.12,1.25,21.19,1.83.94.15,1.89.2,2.84.14.04.22.09.45.13.68-.33,1.65-.52,3.33-.89,4.97-8.07-1.11-16.11-2.38-24.17-3.54-.87-.13-1.73-.38-2.61-.27-.17.37-.3.76-.62,1.03-2.4.61-4.89.7-7.28,1.36,1.53.19,3.02.59,4.53.89.68.12,1.34.38,2.04.31-.11.05-.21.11-.32.17.98-.04,1.9.35,2.88.48,1.44.26,2.83.78,4.3.81l-.33.17c1.27.05,2.48.47,3.73.7,2.68.52,5.34,1.25,8.05,1.63-.11.06-.21.11-.31.17.9-.09,1.76.26,2.64.42,1.81.32,3.6.82,5.41,1.13.29.02.55.14.76.34-.47,1.88-1.1,3.72-1.61,5.58-.34-.08-.67-.17-1-.28-12.63-3.6-25.28-7.14-37.92-10.72-1.68-.65-3.43.16-5.12.33-.88.26-1.81.24-2.67.57,8.24,2.92,16.48,5.86,24.7,8.82.52.26,1.14.23,1.64.52-.24,0-.47-.02-.71-.04v.12c.96-.09,1.81.4,2.7.69,2.72.95,5.42,1.96,8.14,2.9,1.05.47,2.17.66,3.19,1.15,1.59.66,3.31,1.02,4.86,1.8-.78,1.98-1.66,3.92-2.58,5.85-.38-.05-.76-.11-1.13-.2.07-.09.14-.17.21-.24-.5,0-.93-.28-1.37-.45-3.71-1.61-7.38-3.28-11.09-4.87-.53-.23-1.05-.5-1.54-.81l.36.37c-1.83-1-3.81-1.72-5.71-2.61-3.53-1.6-7.11-3.09-10.63-4.71-.31-.19-.68-.29-1.05-.26.1-.06.21-.11.31-.16-.56-.09-1.05-.37-1.57-.58-4.56-2.03-9.15-4.02-13.69-6.05-.34-.18-.72-.34-1.11-.21-1.39.29-2.82.41-4.16.85,8.24,4.46,16.51,8.85,24.75,13.31.88.38,1.65,1.1,2.63,1.19l-.33.07c4.56,2.38,9.08,4.85,13.62,7.28.25.11.52.2.78.26-.08.07-.16.15-.23.22.52-.02.95.33,1.4.56,2.03,1.08,4.06,2.19,6.09,3.27l.05.18c-1.25,2.12-2.56,4.2-3.94,6.24-.52-.13-.94-.52-1.4-.78-2.35-1.6-4.77-3.09-7.15-4.66-1.05-.6-1.95-1.45-3.08-1.87.03-.07.08-.14.13-.21-.87-.29-1.55-.93-2.33-1.38-6.85-4.43-13.68-8.89-20.53-13.33-1.38-1.02-2.9-1.8-4.29-2.8-2.35-1.51-4.71-2.99-6.98-4.61.12.13.24.26.37.4-.28-.2-.58-.35-.87-.52l.22-.09c-1.16-.52-2.17-1.35-3.25-2.01-1.25.27-2.55.34-3.77.73,1,.82,2.04,1.57,3.02,2.4.58.43,1.09,1,1.8,1.22l-.14.21c.94.48,1.69,1.25,2.52,1.89,2.94,2.24,5.8,4.59,8.74,6.84.5.37.9.94,1.56,1.05-.32.09,0,.28.12.37.39.26.8.52,1.19.78l-.26.13c.88.02,1.31,1.12,2.16,1.33-.08.04-.15.08-.22.11.54.17.93.59,1.36.94,2.5,1.92,4.93,3.95,7.45,5.85.72.52,1.32,1.27,2.18,1.57l-.19.13c1.7,1.08,3.18,2.48,4.8,3.66,3.55,2.88,7.17,5.65,10.75,8.49.39.28.76.84,1.31.52-1.99,2.46-4.11,4.81-6.36,7.04-9.91-9.5-19.7-19.13-29.62-28.63-2.94-2.95-5.98-5.79-8.96-8.69-.78-.8-1.74-1.46-2.37-2.4-1.61-1.2-2.88-2.82-4.39-4.11-1.12-.09-2.16.42-3.27.47l.1.37c1.05,1.18,2,2.44,3.04,3.64.43.62,1.06,1.11,1.36,1.81.05-.05.09-.1.15-.15.17.34.38.67.63.96,3.37,3.98,6.64,8.05,9.98,12.06,1.19,1.26,2.14,2.71,3.31,3.98,6.3,7.68,12.65,15.32,18.97,22.98,1.21,1.5,2.48,2.94,3.63,4.48-2.83,2.31-5.79,4.47-8.87,6.45-3.8-5.8-7.47-11.69-11.23-17.52-.75-1.05-1.37-2.14-2.04-3.23-3.18-4.95-6.34-9.91-9.48-14.89-.29-.44-.65-.87-.76-1.4-.08.05-.16.1-.22.17-.17-.76-.74-1.31-1.08-1.99-2.67-4.18-5.37-8.37-8.01-12.58-1.02-1.51-1.88-3.14-3.01-4.57-.98.26-1.98.44-2.99.52-.08.14-.07.31.03.44,7.72,16.68,15.43,33.36,23.13,50.04.22.47.55.93.48,1.47.04-.1.09-.21.14-.31.7,1.83,1.6,3.58,2.41,5.36.66,1.46,1.31,2.93,2.01,4.37-3.9,1.88-7.93,3.49-12.05,4.83-.37-.26-.36-.75-.49-1.14-6.36-21.44-12.65-42.93-19.04-64.36-1.06.09-2.1.32-3.16.47,0,.35-.02.7,0,1.05,2.99,21.92,5.97,43.85,8.92,65.79.02.48.1.95.24,1.41-4.79.92-9.7,1.26-14.59,1.37.1-2.39-.03-4.78.21-7.16.1-2.64-.02-5.29.22-7.92,0-2.15.07-4.3.08-6.44.32-3.31.04-6.66.34-9.97.03-2.85.07-5.69.2-8.53.1-2.15-.03-4.3.21-6.44,0-2.22.07-4.44.08-6.66.22-2.7.17-5.41.21-8.12.23-2.54.12-5.1.21-7.65-1.22.02-2.41.34-3.61.52-.35,1.25-.55,2.55-.78,3.83-1.21,6.24-2.35,12.49-3.55,18.73-.19,1.37-.66,2.71-.62,4.11l-.17-.59c.03.91-.25,1.78-.37,2.67-1.98,10.3-3.89,20.61-5.87,30.91-.5,2.6-.92,5.22-1.48,7.8-4.65-.63-9.25-1.62-13.75-2.94,7.46-21.27,15.01-42.52,22.51-63.79-.95.05-1.89.17-2.82.36-.57.15-1.19.06-1.71.38-3.25,6.35-6.64,12.62-9.95,18.95-6.02,11.44-12.05,22.87-18.09,34.3-.83,1.73-1.78,3.41-2.7,5.1-3.85-1.71-7.58-3.7-11.15-5.95,2.64-3.7,5.27-7.39,7.91-11.08.35-.76.99-1.31,1.44-2,.81-1.19,1.67-2.35,2.51-3.52.02-.09.06-.26.07-.34.02.07.07.21.09.28.5-1.12,1.51-1.95,1.97-3.09l.17.14c.2-.59.64-1.05.9-1.61l.24.14c.06-.33.19-.63.4-.89.97-1.2,1.78-2.51,2.69-3.74,2.5-3.48,4.97-6.99,7.48-10.46.52-.85,1.22-1.61,1.69-2.51.03.06.09.19.12.25,0-.08.03-.26.04-.35,2.57-3.58,5.11-7.18,7.69-10.76.13-.14.27-.26.44-.36l-.32-.04c.57-.46.95-1.09,1.35-1.68-1.38,0-2.7.52-4.08.45-.49.03-1.01-.12-1.48.04-10.02,10.98-20.06,21.93-30.14,32.84-1.35,1.57-2.92,2.98-4.13,4.67-.14.04-.28.09-.41.15-.56.94-1.46,1.62-2.13,2.48-1.29,1.38-2.56,2.77-3.85,4.15l-.39-.03c-2.59-2.09-5.06-4.31-7.43-6.66-.04-.08-.12-.26-.15-.33,12.99-11.34,25.98-22.67,38.99-33.99,1.87-1.52,3.6-3.22,5.49-4.71-.21-.31-.55-.67-.96-.42-1.57,1.27-3.37,2.19-5.16,3.07-2.93,1.4-5.94,2.61-9.02,3.63-1.13.55-2.09,1.4-3.09,2.14-1.21.68-2.27,1.6-3.42,2.37-5.42,3.8-10.78,7.68-16.21,11.47-4.41,3.1-8.77,6.27-13.19,9.34-1.87-2.31-3.73-4.67-5.3-7.2l.28-.14c1.83-.95,3.56-2.11,5.4-3.07,5.71-3.34,11.45-6.64,17.18-9.96.38-.29.82-.51,1.28-.65.62-.57,1.42-.85,2.12-1.32-.83-.19-1.67.05-2.51,0-2.74.08-5.48-.13-8.18-.62-.46-.03-.95-.09-1.37.13-6.15,2.94-12.33,5.79-18.48,8.73-1.25-2.19-2.38-4.44-3.43-6.73,2.66-1.13,5.4-2.05,8.07-3.14,2.18-.75,4.31-1.66,6.47-2.43v-.24c-1.73-1.28-3.23-2.86-4.43-4.65-3.4,1.05-6.83,2.05-10.24,3.08-.89.21-1.74.6-2.64.74-.71-1.99-1.4-4.01-1.99-6.01l.12-.42c4.06-.84,8.09-1.85,12.15-2.7.23-.04.44-.13.63-.27-.52-1.76-.12-3.63-.41-5.41-4,.58-7.98,1.27-11.98,1.88-.73.16-1.48.25-2.24.26-.42-2.01-.81-4.02-1.12-6.05,3.12-.29,6.24-.63,9.36-.88,2.31-.33,4.67-.34,6.95-.78.39-1.67.85-3.33,1.28-4.99-1.05-.01-2.09.03-3.14.03-2.09.22-4.22.14-6.34.21-2.49.33-5.01.03-7.49.33-.45.02-.9.01-1.34.03-.21-2.01-.33-4.04-.36-6.06,2.72.11,5.44,0,8.15.23,2.35.05,4.73-.03,7.09.2,1.57.03,3.11.05,4.66.06.49-1.5.75-3.06,1.29-4.55l-.33-.22c-6.04-.52-12.07-1.05-18.11-1.55-.9-.14-1.81-.2-2.73-.19.02-2.09.17-4.17.44-6.24,5.68.86,11.35,1.72,17.03,2.54,1.65.18,3.27.62,4.94.66.29-1.6.9-3.14,1.08-4.75-.33-.05-.66-.08-.99-.09l.32-.14c-.76.05-1.48-.26-2.23-.35-1.65-.44-3.35-.63-5-1.07-4.15-.9-8.32-1.75-12.47-2.68-.62-.1-1.22-.31-1.85-.32.22-2.19.75-4.35,1.25-6.5,6.72,1.83,13.43,3.76,20.13,5.66.76.13,1.46.52,2.24.51.37-1.59.83-3.16,1.2-4.75,0-.11-.03-.33-.03-.44-1.11-.24-2.13-.74-3.21-1.08-2.32-.76-4.57-1.71-6.9-2.44-3.56-1.37-7.21-2.5-10.75-3.9-.25-.09-.52-.15-.78-.16.21-1.26.77-2.45,1.16-3.66.42-1.14.8-2.3,1.33-3.4,1.15.62,2.38,1.02,3.56,1.59,5.36,2.39,10.75,4.73,16.11,7.12.46.29,1,.29,1.53.28,1.57.47,3.06,1.36,3.92,2.77,1.25,1.97,1.24,4.48.65,6.67-2.54,9.74-5.07,19.49-7.6,29.23-.98,3.59-1.94,7.39-1.08,11.11.59,2.84,2.61,5.26,5.21,6.51,3.69,1.79,7.9,2.01,11.93,1.86,5.23-.28,10.43-1.1,15.41-2.73,6.53-2.12,12.48-5.71,17.4-10.5l.92-.03,1.08-.04-.02.26c-.26,1.29-.74,2.67-.24,3.97.33.84,1.12,1.4,2.02,1.45,1.03.12,2.05-.14,3.06-.31,3.85-.65,7.68-1.36,11.52-1.99,1.63-7.12,3.16-14.27,4.76-21.4.78-3.22,2.47-6.33,5.19-8.3,1.64-1.15,3.59-1.99,5.63-1.98,1.2,0,2.48.5,3.1,1.57.73,1.29.61,2.86.32,4.26-1.09,5.13-2.2,10.25-3.29,15.37-.28,1.48-.77,2.95-.66,4.48.06.82.35,1.69,1.03,2.19.81.62,1.9.6,2.86.46,4.35-.77,8.69-1.54,13.04-2.31,1.53-7.04,3.03-14.08,4.56-21.12.75-3.3,2.47-6.49,5.26-8.49,1.69-1.18,3.72-2.03,5.81-1.96,1.27.03,2.57.73,3.07,1.94.62,1.48.33,3.14-.02,4.67-1.57,7.51-3.16,15.02-4.71,22.54,8.45-1.5,16.91-2.99,25.36-4.47l.38-.12c-1.79-.24-3.63-.98-4.71-2.5-1.24-1.72-1.31-3.97-.95-5.98,1-5.1,2.05-10.2,3.04-15.3.51-3.14.55-6.6-1.16-9.41-1.31-2.18-3.74-3.47-6.2-3.87-4.13-.69-8.35.25-12.18,1.78-4.84,1.97-9.28,4.81-13.1,8.39-.45-1.7-1.6-3.13-3.17-3.92-2.3-1.17-5-1.15-7.5-.78-4.14.66-7.99,2.49-11.58,4.61-2.24,1.32-4.34,2.87-6.27,4.62.16-1.03.33-2.14-.11-3.12-.37-.79-1.1-1.36-1.97-1.52-1.24-.31-2.52-.04-3.75.16-3.36.6-6.73,1.16-10.09,1.76-.61,2.61-1.16,5.26-1.77,7.88-1.05-.3-2.14-.19-3.2-.12-2.19-2.84-5.68-4.36-9.17-4.78-3.91-.41-7.86,0-11.61,1.2-3.98,1.27-7.56,3.57-10.63,6.38,1.73-6.88,3.48-13.76,5.23-20.65.26-1.15.33-2.56-.56-3.47s-2.33-.94-3.53-.76c-7.06,1.22-14.09,2.48-21.15,3.69l-.16-.06c.52-1.88,1.41-3.63,2.61-5.17-6.44-3.5-12.91-6.93-19.35-10.42-.28-.15-.61-.22-.93-.18l.02-.1c.09-.38.25-.75.46-1.08,1.22-2.35,2.52-4.69,3.95-6.93-.02.1-.07.31-.09.41,7.32,4.66,14.53,9.47,21.84,14.14.31.18.6.43.98.46,2.9-.55,5.81-1.07,8.73-1.51-.52-.67-1.25-1.12-1.89-1.66-2.77-2.16-5.51-4.38-8.31-6.5-.13-.15-.73-.31-.36-.52-.8-.17-1.22-1-1.99-1.23l.13-.13c-.33-.15-.59-.4-.75-.72-.01.09-.04.26-.05.34-.22-.34-.52-.63-.86-.85-4.07-3.24-8.18-6.41-12.23-9.67,2.07-2.73,4.29-5.34,6.65-7.83l.17-.03c.52.74,1.33,1.22,1.92,1.89,4.54,4.47,9.15,8.87,13.72,13.29.88.78,1.62,1.71,2.56,2.43,3.94,3.9,7.92,7.76,11.92,11.59.95.62,1.81,1.36,2.57,2.21,1.12,1.55,2.63,2.76,3.96,4.13,3.4,3.18,6.64,6.54,10.05,9.7.6.54,1.13,1.4,2.04,1.36-.1.05-.2.1-.3.15,1.02-.08,1.71.99,2.71.86.09-1.03.68-2.07.42-3.09-1.73-1.96-3.32-4.05-5.04-6.01-.12-.2-.22-.41-.28-.63-.07.04-.15.09-.22.14-.23-.29-.41-.61-.52-.96l-.23-.07c-.39-.42-.71-.89-.96-1.41l-.13.18c-.93-1.47-2.17-2.69-3.25-4.04-.7-.83-1.34-1.71-2.09-2.51-.24-.27-.44-.57-.58-.9l-.12.18c-.13-.28-.26-.61-.58-.71-.08-.41-.43-.67-.68-.97-2.25-2.74-4.53-5.45-6.76-8.2-.51-.76-1.35-1.31-1.57-2.22-.02.19-.04.38-.05.58-.17-.78-.82-1.28-1.29-1.88-.92-1.12-1.94-2.17-2.69-3.41-.02.06-.08.19-.1.26-.05-.44-.43-.73-.7-1.06-5.14-6.18-10.22-12.41-15.38-18.58l-.24.05c3.28-2.83,6.77-5.39,10.46-7.66.18.42.39.82.65,1.19,2.12,3.3,4.24,6.59,6.33,9.9.17.23.28.49.34.77.04-.05.1-.15.14-.2.5,1.14,1.29,2.12,1.93,3.18,1.37,2.23,2.81,4.42,4.22,6.62.3.45.45,1,.82,1.4-.12-.31-.24-.62-.37-.92,1.05,2.11,2.45,4.02,3.68,6.03,2.8,4.4,5.62,8.79,8.42,13.2,1.31,1.89,2.4,3.92,3.73,5.81.21.3.37.64.48.99.04-.07.09-.14.13-.21.67,1.72,2.13,3.05,2.73,4.81l.24-.19c.15.7.71,1.21.82,1.92v-.78c.32,1.36,1.47,2.31,1.92,3.61.04-.06.1-.19.14-.26.04.58.49,1.35,1.18,1.14,1.37-.19,2.75-.42,4.1-.72-5.52-12.01-11.06-24.01-16.62-36-4.28-9.28-8.6-18.53-12.84-27.82,4.54-2.03,9.22-3.71,14.02-5.02.64,1.49.91,3.11,1.44,4.65,5.06,17.08,10.07,34.17,15.16,51.24,0,.56,0,1.13.29,1.63-.09-.4-.16-.8-.21-1.21.33.54.37,1.18.54,1.78,1.05,3.32,1.92,6.69,3.01,9.99,1.58-.36,3.22-.46,4.78-.88-1.65-11.66-3.12-23.34-4.72-35-1.48-11.17-2.98-22.33-4.48-33.49-.04-.52-.15-1.03-.25-1.54m-27.26,74.86c.63.32,1.17.8,1.79,1.1,1.05.08,2.04-.45,3.1-.47.86-.25,1.77-.19,2.66-.22-.17-.3-.42-.55-.72-.73-.71-.57-1.43-1.12-2.15-1.67-.49-.56-1.26-.81-1.66-1.46-.15-.04-.3-.07-.45-.11-.33-.58-1.02-.83-1.49-1.29-.33,1.62-1,3.18-1.09,4.84m-3.96,19.17c1.75-.3,3.71-.24,5.21.81,1.28.91,1.83,2.54,1.8,4.05-.02,4.42-1.74,8.76-4.56,12.14-1.96,2.33-4.44,4.28-7.35,5.27-1.59.57-3.29.76-4.97.55-1.14-.18-2.25-.85-2.72-1.95-.64-1.52-.41-3.23-.07-4.79.85-3.4,1.69-6.81,2.54-10.22.03-.21.14-.41.3-.55,2.67-2.66,6.08-4.69,9.83-5.31h0Z"/>
  <path class="cls-3" d="m181.54,16.23c5.34.33,10.64,1.13,15.85,2.38-.03,1.16-.37,2.27-.57,3.4-3.14,16.82-6.29,33.64-9.46,50.46-.16.62-.24,1.26-.24,1.9-.07-.19-.13-.38-.19-.58.11,1.05-.24,2.07-.4,3.1-.49,2.71-1.05,5.4-1.51,8.1-.07.52-.15,1.16-.69,1.41-1.16.65-2.17,1.57-3.38,2.09-.35-.55-1.01-.86-1.28-1.44-.03-1.32.02-2.64.14-3.96,0-2.15.05-4.3.09-6.44.3-3.04.04-6.11.33-9.15,0-1.87.05-3.73.07-5.59-.03-1.05.21-2.09.15-3.14.09-2.43-.04-4.86.2-7.28,0-2.01.06-4.01.08-6.01.26-3.25.05-6.54.34-9.78.05-2.91-.02-5.82.21-8.72.03-2.21.06-4.43.09-6.65.17-1.37.1-2.75.16-4.13m-31.83,3.11c5.1-1.36,10.3-2.3,15.55-2.82.09.52.2,1.02.25,1.54,1.51,11.17,3,22.33,4.48,33.49,1.59,11.66,3.07,23.35,4.72,35-1.57.42-3.2.52-4.78.88-1.09-3.3-1.96-6.68-3.01-9.99-.16-.6-.21-1.23-.54-1.78.05.41.12.81.21,1.21-.3-.5-.29-1.07-.29-1.63-5.08-17.07-10.09-34.17-15.16-51.24-.52-1.53-.78-3.16-1.44-4.65m62.42,4.16l.56.13c4.12,1.76,8.11,3.8,11.95,6.1.37.33.84.44,1.31.58-.03.04-.08.13-.11.17l-.72-.26c-.91,1.47-1.63,3.06-2.47,4.58-5.61,10.6-11.21,21.21-16.79,31.84-.52,1.05-1.2,2.04-1.46,3.19v-.61c-.5,1.33-1.33,2.5-1.9,3.8-1.59,2.99-3.14,5.99-4.76,8.98-2.21.21-4.4.65-6.52,1.31.05-.94.52-1.78.78-2.66,6.57-18.59,13.14-37.18,19.71-55.76.19-.44.33-.9.42-1.38m-88.59,7.38c3.88-2.48,7.95-4.66,12.16-6.52,4.23,9.29,8.56,18.54,12.84,27.82,5.53,12.01,11.07,24.01,16.62,36.02-1.35.3-2.73.52-4.1.72-.68.21-1.13-.56-1.18-1.14-.03.06-.1.19-.14.26-.45-1.31-1.6-2.25-1.92-3.61v.78c-.11-.71-.67-1.23-.82-1.92l-.24.19c-.6-1.75-2.06-3.09-2.73-4.81-.05.07-.09.14-.13.21-.11-.35-.27-.69-.48-.99-1.32-1.88-2.41-3.92-3.73-5.81-2.79-4.41-5.62-8.8-8.42-13.2-1.23-2.01-2.63-3.92-3.68-6.03.13.3.26.61.37.92-.37-.41-.52-.95-.82-1.4-1.41-2.21-2.85-4.39-4.22-6.62-.64-1.06-1.43-2.04-1.93-3.18-.03.05-.1.15-.14.2-.06-.28-.17-.54-.34-.77-2.09-3.31-4.22-6.6-6.33-9.9-.26-.37-.47-.77-.65-1.19m112.48,6.82c3.14,2.58,6.13,5.34,8.96,8.26-1.15.9-2.02,2.09-3.02,3.14-2.96,3.21-5.91,6.41-8.85,9.63-3.01,3.36-6.16,6.6-9.15,9.98-2.33,2.55-4.73,5.05-6.98,7.68l-.12-.18c-.24.61-.77,1.03-1.18,1.51-1.42,1.55-2.86,3.09-4.27,4.65-.78.58-1.63,1.11-2.42,1.71-.35.24-.78.66-1.21.37-1.09-.78-2.3-1.46-3.64-1.69.04-.31.17-.61.37-.85,8.95-12.55,17.9-25.09,26.83-37.61,1.57-2.2,3.19-4.36,4.69-6.61m-131.22,8.56c2.64-2.7,5.31-5.39,8.27-7.73l.24-.05c5.16,6.17,10.24,12.4,15.38,18.58.26.33.64.62.7,1.06.03-.06.08-.19.1-.26.75,1.24,1.78,2.29,2.69,3.41.47.6,1.12,1.11,1.29,1.88.02-.19.03-.38.05-.58.23.92,1.07,1.46,1.57,2.22,2.23,2.75,4.52,5.46,6.76,8.2.25.3.6.56.68.97.32.1.45.43.58.71l.12-.18c.14.33.34.63.58.9.74.8,1.39,1.67,2.09,2.51,1.08,1.35,2.33,2.58,3.25,4.04l.13-.18c.25.52.57.99.96,1.41l.23.07c.12.35.29.67.52.96.07-.05.14-.09.22-.14.07.22.16.43.28.63,1.72,1.97,3.31,4.05,5.04,6.01.26,1.02-.32,2.06-.42,3.09-1,.13-1.69-.94-2.71-.86.1-.05.2-.1.3-.15-.91.04-1.44-.82-2.04-1.36-3.41-3.17-6.65-6.54-10.05-9.7-1.33-1.37-2.84-2.57-3.96-4.13-.76-.84-1.62-1.59-2.57-2.21-4-3.83-7.97-7.7-11.92-11.59-.94-.72-1.68-1.65-2.56-2.43-4.58-4.42-9.18-8.82-13.72-13.29-.6-.68-1.4-1.15-1.92-1.89l-.17.03m-11.78,15.3c1.58-2.57,3.33-5.04,5.14-7.46,4.04,3.26,8.16,6.43,12.23,9.67.35.22.64.51.86.85,0-.08.04-.26.05-.34.16.32.43.58.75.72l-.13.13c.78.23,1.19,1.05,1.99,1.23-.38.22.23.38.36.52,2.81,2.12,5.54,4.34,8.31,6.5.64.54,1.37.99,1.89,1.66-2.92.44-5.83.96-8.73,1.51-.37-.03-.67-.29-.98-.46-7.3-4.67-14.52-9.48-21.84-14.13.02-.1.06-.31.09-.41m157.78-6.37c.39-.31.66-.83,1.2-.89,2,2.47,3.75,5.17,5.42,7.89-1.51,1.17-3.1,2.23-4.65,3.34-4.89,3.44-9.75,6.91-14.64,10.35-.21.16-.44.29-.69.36l.26.08c-.58.14-.95.67-1.47.91-.54.02-1.07-.16-1.59-.26-2.31-.5-4.68-.43-7.03-.35-.5,0-.99.07-1.47.19.17-.21.34-.42.52-.61,5.96-5.12,11.85-10.32,17.78-15.47,2.16-1.8,4.18-3.75,6.36-5.53m-162.61,15.09c.1-.26.25-.5.44-.71l-.02.1c.32-.03.64.03.93.18,6.44,3.48,12.92,6.91,19.35,10.42-1.2,1.53-2.09,3.29-2.61,5.17l.16.06.18.07c-.52,0-1.07,0-1.53-.28-5.34-2.41-10.74-4.74-16.1-7.13-1.17-.56-2.41-.97-3.56-1.59.78-2.16,1.79-4.23,2.77-6.31m154.61,10.61c6.15-3.58,12.31-7.15,18.48-10.7l.52-.1c1.11,2.25,2.14,4.57,3.06,6.88-.1.31-.26.58-.64.48l.28.14c-.92.12-1.64.85-2.56.92l.28.12c-.63.14-1.14.57-1.75.75-4.52,2.14-9.05,4.24-13.55,6.4-.21.07-.58.34-.68-.02-.82-1.83-2.13-3.37-3.44-4.87m-159.95,2.74h.09c.27.03.53.09.78.18,3.55,1.4,7.19,2.52,10.75,3.9,2.33.73,4.58,1.68,6.9,2.44,1.07.35,2.09.84,3.21,1.08,0,.11.03.33.03.44-.37,1.59-.84,3.16-1.2,4.75-.78,0-1.48-.38-2.24-.51-6.7-1.9-13.41-3.84-20.13-5.66.48-2.24,1.17-4.42,1.79-6.62m165.04,7.98c6.52-2.43,13.01-4.94,19.52-7.38.8,2.44,1.37,4.95,1.97,7.45-.05-.22-.12-.43-.22-.63l-.37-.16c-6.09,1.92-12.24,3.66-18.34,5.54-1.02.22-1.98.68-3.03.8.33-1.55.26-3.15.28-4.73-.02-.31.05-.62.19-.89m-109.78-.26c.09-1.66.76-3.22,1.09-4.84.47.47,1.16.71,1.49,1.29.15.03.3.07.45.11.4.65,1.17.9,1.66,1.46.72.55,1.44,1.11,2.15,1.67.3.17.55.43.72.73-.89.03-1.79-.03-2.66.22-1.05.01-2.05.54-3.1.47-.63-.31-1.17-.78-1.79-1.1m-58.38,5.39h.09c.63.01,1.23.22,1.85.32,4.15.93,8.31,1.78,12.47,2.68,1.65.44,3.35.62,5,1.07.75.1,1.46.41,2.23.35l-.32.14c.33,0,.66.03.99.09-.18,1.62-.78,3.15-1.08,4.75-1.66-.04-3.29-.48-4.94-.66-5.68-.81-11.36-1.67-17.03-2.54.16-2.09.48-4.14.75-6.21m190.65.42h.08c.22,2.2.61,4.38.76,6.58-.02-.14-.06-.44-.08-.58-1.15.11-2.27.43-3.42.52-1.53.13-3.02.67-4.57.59.26.06.52.12.78.18-.41-.04-.82-.03-1.22.03-4.77.68-9.51,1.57-14.27,2.26-.8.26-1.67.12-2.45.44-.13-.72.15-1.41.22-2.13.16-.87.13-1.8.48-2.61,7.91-1.69,15.78-3.62,23.68-5.28m-112.51,6.71c1.06-.07,2.16-.18,3.2.12,1.43.41,2.77,1.49,3.06,3.01.24,1.15-.4,2.27-1.31,2.94-.14-.78-.52-1.57-1.22-1.97-1.52-.88-3.75-.1-4.3,1.6-.49,1.85.21,3.74,1.12,5.34,1.08,1.82,2.31,3.55,3.68,5.16.44.26.5-.39.63-.65.42-1.1.81-2.48.04-3.52.99-.63,2.12-1.02,3.29-1.12.49,0,1.09-.03,1.43.39.51.64.35,1.52.17,2.24-.52,1.8-1.47,3.42-2.49,4.97-.16.19-.27.42-.33.66.67.84,1.57,1.47,2.35,2.18.79.68,1.64,1.28,2.54,1.81l-.12.42c-2.25.15-4.44.78-6.69,1.01-.85.12-1.27-.81-1.89-1.23-1.88,1.52-4.06,2.73-6.47,3.16l-.1.34.02-.26-1.08.04c-1.13,0-2.29.12-3.4-.23-2.02-.47-3.9-1.81-4.66-3.78-.91-2.41-.72-5.09.54-7.34,1.28-2.26,3.56-3.77,5.96-4.63-.06-.37-.17-.72-.33-1.06-.45-2.18-.23-4.62,1.16-6.44,1.19-1.73,3.14-2.7,5.16-3.11m-6.74,18.44c.18,1.75,1.83,3.1,3.53,3.19,1.33.07,2.75-.14,3.86-.92-1.93-2.02-3.61-4.26-5.03-6.67-1.73.62-2.64,2.65-2.35,4.4m-72.64-13.13h.06c.91-.02,1.82.05,2.73.19,6.04.5,12.08,1.05,18.11,1.55l.33.22c-.54,1.48-.78,3.05-1.29,4.55-1.57,0-3.11-.04-4.66-.06-2.35-.22-4.72-.15-7.09-.2-2.71-.23-5.44-.12-8.15-.23-.09-2.01,0-4.02-.03-6.01m174.27,1.57c6.27-.55,12.53-1.24,18.81-1.74.08,1.88.04,3.76.04,5.64-1.72-.04-3.42.18-5.13.18-1.31.05-2.63-.01-3.92.17-1.74,0-3.47.06-5.21.09-2.42.3-4.86.05-7.28.33-1.78.02-3.55.07-5.32.08.04-1.34.46-2.61.5-3.96,2.49-.36,5.01-.48,7.52-.78m-8.66,8.81c4.55-.02,9.1.26,13.65.28,3.17.26,6.37.12,9.55.24,1.33.18,2.67.11,4.01.14-.16,2.03-.36,4.06-.63,6.08-.04-.23-.09-.45-.13-.68-.95.06-1.9.02-2.84-.14-7.06-.58-14.13-1.23-21.19-1.83-.95-.19-1.94,0-2.88-.28.07-1.28.22-2.56.45-3.82m-150.05,1.12c1.05,0,2.09-.04,3.14-.03-.43,1.66-.89,3.32-1.28,4.99-2.28.44-4.65.44-6.95.78-3.14.25-6.24.59-9.36.88-.3-2.01-.51-4.03-.73-6.05.45-.01.9,0,1.34-.03,2.48-.3,5.01,0,7.49-.33,2.11-.08,4.23,0,6.34-.21m148.96,6.8c.88-.1,1.74.14,2.61.27,8.06,1.16,16.11,2.43,24.17,3.54-.37,1.95-.83,3.87-1.31,5.79-.21-.2-.48-.32-.76-.34-1.83-.31-3.6-.81-5.41-1.13-.88-.16-1.74-.5-2.64-.42.1-.06.2-.12.31-.17-2.71-.38-5.36-1.11-8.05-1.63-1.24-.22-2.46-.65-3.73-.7l.33-.17c-1.47-.02-2.88-.56-4.3-.81-.96-.13-1.88-.52-2.88-.48.1-.06.21-.12.32-.17-.7.07-1.36-.19-2.04-.31-1.51-.3-3-.7-4.53-.89,2.38-.66,4.88-.76,7.28-1.36.33-.26.45-.67.62-1.03m-160.05,5.59c4-.61,7.98-1.31,11.98-1.88.28,1.78-.1,3.66.41,5.41-.18.14-.4.23-.63.27-4.06.85-8.09,1.86-12.15,2.7l-.12.42c-.24-.15-.13-.54-.23-.78-.55-1.95-1.05-3.92-1.51-5.89.75-.01,1.5-.1,2.24-.26m139.87-1.1c1.69-.17,3.44-.98,5.12-.33,12.64,3.58,25.29,7.12,37.92,10.72.26.1.53.19.8.26.03.56-.21,1.07-.38,1.59-.49,1.45-1.05,2.88-1.6,4.3h0c-1.55-.78-3.26-1.14-4.86-1.8-1.02-.49-2.16-.68-3.19-1.15-2.72-.94-5.42-1.95-8.14-2.9-.88-.29-1.74-.78-2.7-.69v-.12c.23.02.47.03.71.04-.5-.3-1.13-.26-1.64-.52-8.23-2.96-16.46-5.9-24.7-8.82.86-.33,1.8-.31,2.67-.57m-8.73,1.61c.38-.13.76.03,1.11.21,4.56,2.03,9.13,4.03,13.69,6.05.52.21,1,.49,1.57.58-.11.05-.21.1-.31.16.37-.02.73.07,1.05.26,3.52,1.62,7.1,3.11,10.63,4.71,1.9.88,3.87,1.6,5.71,2.61l-.36-.37c.49.31,1,.58,1.54.81,3.72,1.59,7.39,3.27,11.09,4.87.44.17.87.46,1.37.45-.08.08-.15.16-.21.24.37.09.75.15,1.13.2-1.08,2.16-2.19,4.32-3.4,6.42l-.05-.18c-2.03-1.08-4.06-2.18-6.09-3.27-.45-.22-.87-.58-1.4-.56.07-.08.15-.15.23-.22-.27-.07-.53-.15-.78-.26-4.54-2.43-9.05-4.91-13.62-7.28l.33-.07c-.98-.09-1.75-.81-2.63-1.19-8.25-4.47-16.51-8.87-24.76-13.31,1.34-.44,2.77-.56,4.16-.85m-12.26,2.3c1.22-.39,2.52-.46,3.77-.73,1.08.67,2.09,1.48,3.25,2.01l-.22.09c.28.18.59.33.87.52-.13-.13-.25-.26-.37-.4,2.26,1.62,4.63,3.1,6.98,4.61,1.38,1.01,2.91,1.78,4.29,2.8,6.85,4.43,13.67,8.9,20.53,13.33.78.45,1.46,1.09,2.33,1.38-.05.06-.09.13-.13.21,1.14.42,2.04,1.27,3.08,1.87,2.37,1.57,4.79,3.06,7.15,4.66.46.26.86.66,1.4.78-1.54,2.16-3.1,4.31-4.78,6.36-.54.31-.92-.26-1.31-.52-3.58-2.84-7.2-5.61-10.75-8.49-1.63-1.19-3.1-2.58-4.8-3.66l.19-.13c-.86-.31-1.46-1.05-2.18-1.57-2.52-1.9-4.94-3.92-7.45-5.85-.43-.34-.82-.77-1.36-.94.07-.04.14-.08.22-.11-.87-.21-1.28-1.31-2.16-1.33l.26-.13c-.39-.28-.8-.52-1.19-.78-.11-.09-.43-.28-.12-.37-.65-.11-1.05-.67-1.56-1.05-2.93-2.27-5.79-4.61-8.73-6.87-.83-.64-1.57-1.41-2.52-1.89l.14-.21c-.71-.22-1.22-.78-1.8-1.22-.99-.83-2.03-1.59-3.02-2.4m-6.82,1.18c1.11-.05,2.15-.56,3.27-.47,1.53,1.29,2.79,2.91,4.39,4.11.62.94,1.59,1.59,2.37,2.4,2.98,2.91,6.01,5.75,8.96,8.69,9.91,9.5,19.71,19.12,29.62,28.63-2.36,2.4-4.84,4.66-7.44,6.8-1.15-1.54-2.42-2.98-3.63-4.48-6.32-7.67-12.67-15.3-18.97-22.98-1.17-1.27-2.12-2.73-3.31-3.98-3.35-4.01-6.61-8.08-9.98-12.06-.24-.3-.45-.62-.63-.96-.05.05-.1.1-.15.15-.3-.7-.93-1.19-1.36-1.81-1.05-1.19-1.98-2.46-3.04-3.64l-.1-.37m-6.51,1.11c1.01-.09,2.01-.26,2.99-.52,1.12,1.44,1.99,3.05,3.01,4.57,2.64,4.21,5.34,8.38,8.01,12.58.35.67.91,1.23,1.08,1.99.06-.07.14-.13.22-.17.11.52.47.95.76,1.4,3.14,4.98,6.3,9.94,9.48,14.89.67,1.08,1.31,2.19,2.04,3.23,3.75,5.84,7.42,11.73,11.23,17.52-3.41,2.18-6.96,4.15-10.61,5.9-.69-1.45-1.35-2.91-2.01-4.37-.81-1.79-1.72-3.53-2.41-5.36-.05.1-.09.2-.14.31.08-.55-.26-1.01-.48-1.47-7.71-16.67-15.42-33.34-23.13-50.02-.1-.13-.11-.3-.03-.44m-6.54,1.19c1.05-.15,2.09-.38,3.16-.47,6.38,21.44,12.67,42.91,19.05,64.36.13.39.12.88.49,1.14-.76.1-1.42.55-2.18.66-3.74,1.05-7.51,2.05-11.36,2.56-.13-.46-.21-.93-.24-1.41-2.98-21.93-5.95-43.86-8.92-65.79-.03-.35,0-.7,0-1.05m-7.28,1.25c1.21-.18,2.39-.49,3.61-.52-.1,2.55.02,5.11-.21,7.65-.04,2.71,0,5.42-.21,8.12,0,2.22-.07,4.44-.08,6.66-.24,2.14-.1,4.29-.21,6.44-.13,2.84-.17,5.68-.2,8.53-.3,3.31-.02,6.66-.34,9.97,0,2.15-.07,4.3-.08,6.44-.23,2.63-.12,5.28-.22,7.92-.24,2.37-.1,4.77-.21,7.16-4.92.07-9.84-.22-14.72-.87v-.02c.57-2.59.99-5.21,1.48-7.8,1.98-10.3,3.89-20.61,5.87-30.91.13-.89.41-1.76.37-2.67l.17.59c-.04-1.4.43-2.74.62-4.11,1.19-6.24,2.35-12.49,3.55-18.73.25-1.28.45-2.58.78-3.83m-29.5,3.92c1.8-.89,3.61-1.81,5.16-3.07.41-.26.75.12.96.42-1.89,1.5-3.62,3.19-5.49,4.71-12.97,11.37-25.97,22.7-38.99,34,.04.08.12.26.15.33-2.35-2.37-4.63-4.85-6.75-7.45,4.42-3.07,8.78-6.25,13.19-9.34,5.43-3.79,10.8-7.67,16.21-11.47,1.16-.77,2.21-1.69,3.42-2.37,1.01-.74,1.97-1.57,3.09-2.14,3.08-1.02,6.09-2.23,9.02-3.63m22.59-2.81c.93-.19,1.87-.31,2.82-.36-7.5,21.26-15.06,42.5-22.51,63.79-4.08-1.12-8.03-2.67-11.93-4.3-.39.03-.54-.4-.93-.24l.11-.17c.92-1.69,1.87-3.36,2.7-5.1,6.05-11.43,12.09-22.87,18.1-34.3,3.3-6.32,6.7-12.6,9.95-18.95.52-.32,1.14-.23,1.71-.38m-80.66,3.55c3.4-1.05,6.83-2.03,10.24-3.08,1.2,1.79,2.7,3.37,4.43,4.65v.24c-2.17.78-4.29,1.68-6.47,2.43-2.67,1.09-5.41,2.01-8.07,3.14-1.01-2.18-1.9-4.41-2.77-6.65.9-.14,1.75-.52,2.64-.74m69.84-1.99c1.38.08,2.7-.46,4.08-.45-.4.6-.78,1.23-1.35,1.68l.32.04c-.16.1-.31.22-.44.36-2.58,3.57-5.12,7.17-7.69,10.76,0,.09-.03.26-.04.35-.03-.06-.09-.19-.12-.25-.47.9-1.16,1.65-1.69,2.51-2.5,3.48-4.97,6.99-7.48,10.46-.92,1.23-1.73,2.54-2.69,3.74-.2.27-.33.58-.38.92l-.24-.14c-.26.56-.7,1.02-.9,1.61l-.17-.14c-.46,1.14-1.47,1.97-1.97,3.09-.02-.07-.06-.21-.09-.28-.02.09-.05.26-.07.34-.83,1.17-1.69,2.33-2.51,3.52-.44.7-1.09,1.24-1.44,2-2.64,3.69-5.28,7.39-7.91,11.08-3.38-2.11-6.64-4.41-9.75-6.9l.39.03c1.29-1.38,2.56-2.77,3.85-4.15.67-.87,1.57-1.54,2.13-2.48.13-.06.27-.11.41-.15,1.21-1.69,2.78-3.09,4.13-4.67,10.05-10.95,20.09-21.9,30.13-32.84.47-.16.99-.01,1.48-.04m-47.79,7.36c.42-.22.92-.15,1.37-.13,2.7.49,5.44.7,8.18.62.84.05,1.68-.19,2.51,0-.69.47-1.5.75-2.12,1.32-.46.14-.89.36-1.28.65-5.73,3.32-11.47,6.62-17.18,9.96-1.83.95-3.56,2.12-5.4,3.07l-.26.09-.2-.1c-1.44-2.21-2.86-4.44-4.12-6.75,6.15-2.94,12.33-5.79,18.48-8.73h0Z"/>
</svg>