<svg width="350" height="225" viewBox="0 0 350 225" fill="none" xmlns="http://www.w3.org/2000/svg">
<path d="M97.8701 34.16V155.85H253.3V16L97.8701 34.16Z" fill="#F9B91D"/>
<path d="M242.29 116.67C243.03 118.27 243.65 120.14 243.44 122.47H202.18C201.77 119.54 200.64 117.04 199.39 114.78C198.17 112.59 196.58 110.57 194.86 108.84C193.13 107.11 191.21 105.53 189.09 104.15C186.98 102.78 184.73 101.45 182.3 100.48C182.01 100.36 181.17 100.57 180.76 100.65C179.45 100.87 178.05 101.1 176.73 101.31C176.49 101.36 176.22 101.32 175.98 101.37C175.93 101.38 175.9 101.44 175.87 101.46C175.75 101.52 175.54 101.52 175.37 101.54C174.05 101.66 172.74 102.08 171.26 102.09C171.15 102.15 171.04 102.19 170.93 102.23C170.56 102.32 170.11 102.33 169.69 102.4C167.55 102.71 165.35 103.02 163.15 103.34C162.87 103.37 162.57 103.37 162.29 103.42C161 103.62 159.54 103.8 158.18 103.97C156.55 104.17 154.85 104.39 153.15 104.58C152.6 104.64 152 104.62 151.47 104.74C150.43 104.98 149.27 105 148.13 105.12C147.29 105.22 146.47 105.36 145.6 105.4C145.33 105.41 145.02 105.32 144.76 105.48C140.56 105.91 136.19 106.21 131.79 106.53C131.07 106.59 130.32 106.63 129.58 106.67C128.83 106.7 128.03 106.61 127.3 106.7C127.12 106.72 126.96 106.79 126.8 106.81C125.52 106.91 124.19 106.89 122.88 106.94C121.36 107.01 119.81 107 118.27 107C115.34 107 112.46 106.95 109.71 106.81C109.56 106.8 109.35 106.81 109.25 106.7C109.18 105.41 109.33 103.83 109.35 102.44C111.59 102.35 113.68 102.1 116.04 102.09C116.33 102.09 116.63 102 116.92 101.98C126.93 101.26 136.87 100.4 146.32 99.0502C148.68 98.7102 151.04 98.4402 153.3 97.9802C154.45 97.7302 155.59 97.5402 156.72 97.3302C158.95 96.9602 161.15 96.3902 163.24 95.8002C164.28 95.4902 165.29 95.1502 166.28 94.8002C163.55 93.3402 160.45 92.6202 157.2 91.7102C155.08 91.1102 152.83 90.6602 150.55 90.2402C150.27 90.1902 149.98 90.1102 149.69 90.0802C148.84 89.9802 147.96 89.8102 147.1 89.6402C144.78 89.1902 142.39 88.9302 140 88.6502C138.79 88.5002 137.59 88.3302 136.39 88.2102C136.07 88.1802 135.78 88.1002 135.47 88.1002C134.57 88.0902 133.62 87.9302 132.68 87.8502C131.44 87.7402 130.2 87.6202 128.93 87.5502C125.81 87.3502 122.67 87.1102 119.41 86.9402C118.78 86.9102 118.16 86.8002 117.54 86.8002C114.92 86.8002 112.29 86.6102 109.64 86.6102V81.8302C115.81 81.7102 121.83 81.9702 127.75 82.0802C128.11 82.0902 128.48 82.0802 128.85 82.1402C129.2 82.1802 129.53 82.1602 129.88 82.1702C135.63 82.3602 141.6 82.7602 147.21 83.2102C147.93 83.2802 148.66 83.3002 149.37 83.3802C150.78 83.5502 152.21 83.5802 153.59 83.7602C154.97 83.9502 156.35 84.1002 157.73 84.2302C159.11 84.3602 160.49 84.5602 161.84 84.7302C165.6 85.1802 169.26 85.7702 172.89 86.3802C173.13 86.4302 173.38 86.4502 173.6 86.5302C173.9 86.6202 174.47 86.6802 174.82 86.7502C175.48 86.8702 176.12 86.9702 176.78 87.1102C177.07 87.1702 177.4 87.2002 177.66 87.3602C179.54 87.5802 181.23 88.1302 182.94 88.4302C184.85 87.6802 186.58 86.5802 188.35 85.6202C190.1 84.6702 191.73 83.5002 193.27 82.3102C196.39 79.8902 199.25 77.2402 201.17 73.7502C202.18 71.9202 202.89 69.9902 203.05 67.4002C203.2 64.8702 202.51 62.5302 201.62 60.6702C200.73 58.8302 199.6 57.2002 198.33 55.7302C197.23 54.4402 196 53.2402 194.72 52.1402C194.54 51.9802 194.31 51.8702 194.2 51.6402C193.43 51.1102 192.75 50.5202 192.01 49.9602C191.73 49.7502 191.45 49.5202 191.13 49.2902C190.98 49.1902 190.85 49.0502 190.67 49.0002C189.22 47.9502 187.69 46.9502 186.12 46.0202C185.92 45.9002 185.62 45.7902 185.53 45.5502C185.43 45.5502 185.29 45.5702 185.26 45.4902C184.29 44.9002 183.25 44.3702 182.25 43.7802C182.18 43.7402 182.18 43.7202 182.1 43.6902C181.88 43.6102 181.65 43.4602 181.41 43.3402C181.25 43.2502 180.97 43.2202 180.95 42.9802C180.55 43.0002 180.34 42.7102 180.07 42.5602C179.93 42.5002 179.69 42.4102 179.65 42.2302C179.45 42.2602 179.31 42.1302 179.15 42.0402C178.45 41.6402 177.65 41.2402 176.86 40.9102C176.37 40.7102 175.92 40.4802 175.42 40.3002C174.95 40.1302 174.45 39.9002 173.95 39.7202C173.47 39.5302 172.98 39.3502 172.47 39.1702C172.33 39.1102 172.11 39.0902 172.05 38.9202C171.63 38.9302 171.25 38.7402 170.92 38.6102C170.02 38.2702 169 38.0402 168.05 37.6902C168.03 37.6902 168.05 37.6202 167.99 37.6102C167.9 37.5902 167.8 37.6102 167.68 37.5802C167.2 37.4802 166.73 37.2602 166.21 37.1702C166.19 36.9902 165.98 37.0802 165.88 37.0602C165.12 36.9102 164.33 36.5902 163.53 36.4302C163.38 36.3002 163.17 36.3302 162.98 36.3002C162.45 36.2002 161.9 35.9702 161.33 35.8802C161.22 35.7402 161.06 35.7902 160.91 35.7702C160.77 35.7502 160.64 35.7002 160.5 35.6602C159.83 35.4902 159.12 35.3202 158.4 35.2002C158.33 35.1902 158.26 35.1702 158.21 35.1402C157.7 34.9702 156.88 34.8502 156.3 34.7202C156.02 34.6602 155.72 34.6202 155.44 34.5602C155.18 34.5002 154.89 34.4802 154.67 34.3102C154.08 34.3302 153.51 34.1502 152.91 34.0302C152.62 33.9702 152.14 33.9902 151.88 33.8402C151.73 33.7502 151.35 33.7502 151.08 33.7002C149.87 33.4702 148.64 33.2902 147.5 33.0102C146.42 32.8702 145.31 32.7702 144.24 32.5402C142.93 32.2502 141.54 32.1602 140.22 31.9402C139.91 31.8802 139.45 31.9502 139.17 31.8302C139.11 31.8102 139.11 31.7302 139.06 31.7202C138.94 31.7002 138.78 31.7202 138.64 31.7202C137.57 31.6902 136.4 31.4602 135.33 31.3402C135.19 31.3202 135.05 31.3102 134.92 31.2802C134.81 31.2602 134.69 31.1902 134.58 31.1702C134.29 31.1202 133.85 31.2002 133.53 31.1102C133.43 31.0902 133.4 31.0302 133.28 31.0002C131.95 31.0702 130.55 30.6902 129.26 30.6202C128.98 30.6102 128.71 30.6002 128.42 30.5602C128.16 30.5402 127.91 30.4602 127.65 30.4602C127.36 30.4502 127.11 30.4302 126.83 30.4002C125.77 30.2902 124.66 30.2502 123.57 30.1202C123.05 30.0602 122.51 30.0402 121.98 29.9602C121.43 29.8702 120.85 29.9602 120.34 29.8502C120.23 29.8202 120.12 29.7402 120.01 29.7102C119.69 29.6402 119.29 29.7102 118.94 29.7102C117.95 29.7102 116.88 29.5602 115.9 29.5202C114.54 29.4402 113.22 29.2902 111.87 29.2402C118.11 28.0502 124.64 26.8002 130.92 25.6502C131.29 25.5802 131.98 25.6402 132.5 25.6502C135.82 25.7802 139.32 26.0102 142.51 26.2002C146.36 26.4502 150.07 26.8302 153.62 27.1402C157.3 27.4702 160.88 27.9902 164.44 28.4202C168.01 28.8502 171.51 29.4002 174.95 29.9702C175.48 30.0502 176.05 30.1902 176.55 30.2602C179.46 30.6702 182.33 31.2702 185.17 31.8402C191.87 33.1902 198.34 34.7402 204.57 36.5802C206.14 37.0502 207.68 37.5202 209.21 37.9902C216.86 40.3302 223.92 43.3702 230.25 47.1502C231.35 47.8102 232.47 48.4402 233.48 49.2202C233.55 49.2802 233.59 49.3702 233.67 49.4102C235.53 50.6602 237.21 52.1302 238.8 53.7102C239.18 54.0902 239.51 54.5002 239.87 54.9002C240.91 56.0402 241.92 57.5602 242.55 58.9902C243.23 60.5002 243.63 62.0702 243.63 63.9602C243.63 65.8502 243.09 67.4302 242.47 68.8402C241.55 70.9402 240.44 72.8302 239.13 74.5602C237.83 76.2902 236.41 77.8502 234.86 79.3402C234.58 79.6002 234.27 79.9002 233.94 80.1402C233.82 80.2202 233.85 80.2202 233.75 80.3302C233.66 80.4202 233.56 80.5002 233.44 80.6002C232.89 81.1102 232.21 81.6602 231.59 82.1202C230.44 82.9802 229.28 83.8302 228.06 84.6302C227.29 85.1302 226.55 85.6002 225.73 86.1002C225.37 86.3102 224.97 86.6002 224.58 86.8102C224.5 86.8602 224.36 86.8102 224.36 86.9502C223.34 87.4802 222.36 88.0702 221.32 88.5802C220.29 89.1002 219.26 89.6302 218.18 90.1102C217.92 90.1802 217.71 90.3602 217.46 90.4702C216.99 90.6902 216.48 90.8502 215.97 91.0702C215.73 91.1702 215.51 91.3202 215.26 91.4102C214.96 91.5202 214.65 91.6402 214.34 91.7602C213.53 92.1002 212.69 92.4402 211.8 92.7302C211.66 92.7802 211.55 92.8802 211.36 92.9202C211.3 92.9302 211.24 92.9202 211.2 92.9202C211.09 92.9502 210.85 93.1002 210.67 93.1702C209.73 93.5002 208.77 93.8001 207.78 94.0901C210.48 95.0701 213.13 96.1002 215.72 97.2102C215.77 97.3602 215.97 97.3302 216.08 97.3702C216.42 97.5002 216.81 97.6702 217.07 97.8702C217.79 98.0502 218.43 98.4502 219.09 98.7602C222.37 100.28 225.5 101.92 228.52 103.72C229.72 104.43 230.89 105.18 232 105.99C233.38 106.92 234.75 107.91 236 109.03C237.25 110.13 238.47 111.25 239.54 112.5C240.6 113.75 241.57 115.12 242.33 116.72" fill="white"/>
<path d="M101 193.36H95.29V165.4H102.19C111.06 165.4 114.92 167.28 114.92 172.7C114.92 176.86 112.24 179.17 106.95 179.6L117.01 193.37H110.88L101.18 179.72H101M102.79 177.56C107.73 177.56 109.16 176.11 109.16 172.7C109.16 169.52 107.37 168.7 102.61 168.7H101V177.56H102.79Z" fill="#1F4490"/>
<path d="M124.76 165.4H129.81L139.18 193.36H133.74L131.83 187.87H122.69L120.84 193.36H115.4M123.7 184.73H130.88L127.29 172.61L123.7 184.73Z" fill="#1F4490"/>
<path d="M150.95 193.36H145.4V181.48L137.88 165.4H143.43L146.79 173.21C147.18 174.11 147.69 175.64 148.19 177.68C148.53 176.11 148.97 174.66 149.59 173.25L152.95 165.41H158.56L150.93 181.49" fill="#1F4490"/>
<path d="M160.14 165.4H167.89C175.88 165.4 179.52 167.4 179.52 172.5C179.52 176.11 177.94 178.11 173.88 178.97C178.4 179.68 180.16 181.64 180.16 185.32C180.16 190.81 176.46 193.36 168.35 193.36H160.13M167.82 177.4C172.05 177.4 173.99 176.03 173.99 173.05C173.99 169.83 172.23 168.74 167.82 168.74H165.76V177.41H167.82V177.4ZM167.64 189.79C172.51 189.79 174.45 188.85 174.45 185.28C174.45 181.71 172.45 180.49 167.7 180.49H165.76V189.78H167.64V189.79Z" fill="#1F4490"/>
<path d="M183.26 165.4H188.82V186.23C188.82 188.9 190.57 190.15 194.26 190.15C197.95 190.15 199.7 188.89 199.7 186.23V165.4H205.25V185.91C205.25 191.28 201.92 193.71 194.26 193.71C186.6 193.71 183.26 191.28 183.26 185.91" fill="#1F4490"/>
<path d="M215.77 193.36H210.06V165.4H216.96C225.83 165.4 229.69 167.28 229.69 172.7C229.69 176.86 227.01 179.17 221.72 179.6L231.78 193.37H225.65L215.95 179.72H215.77M217.56 177.56C222.5 177.56 223.93 176.11 223.93 172.7C223.93 169.52 222.15 168.7 217.39 168.7H215.78V177.56H217.57H217.56Z" fill="#1F4490"/>
<path d="M233.42 165.4H238.63L249.69 184.81V165.4H255.02V193.36H249.75L238.75 173.79V193.36H233.42" fill="#1F4490"/>
<path d="M98.0199 201.6H94.8999V200.56H103.42V201.6H100.31V208.9H98.0199" fill="#1F4490"/>
<path d="M122.6 208.9H120.44V200.57H123.05C126.4 200.57 127.86 201.13 127.86 202.74C127.86 203.98 126.85 204.67 124.85 204.8L128.65 208.9H126.33L122.66 204.83H122.59M123.26 204.19C125.13 204.19 125.67 203.76 125.67 202.74C125.67 201.8 125 201.55 123.2 201.55H122.59V204.19H123.26Z" fill="#1F4490"/>
<path d="M148.35 200.56H150.42L154.26 208.89H152.03L151.25 207.25H147.51L146.75 208.89H144.52M147.92 206.32H150.86L149.39 202.71L147.92 206.32Z" fill="#1F4490"/>
<path d="M171.64 200.56H174.49C178.86 200.56 180.41 201.68 180.41 204.72C180.41 207.76 178.86 208.89 174.49 208.89H171.64M174.94 207.82C177.47 207.82 178.23 206.93 178.23 204.71C178.23 202.49 177.47 201.61 174.94 201.61H173.82V207.82H174.94Z" fill="#1F4490"/>
<path d="M198.48 208.9H200.91V200.56H198.48" fill="#1F4490"/>
<path d="M218.84 200.56H221.01L225.6 206.35V200.56H227.81V208.89H225.62L221.06 203.06V208.89H218.84" fill="#1F4490"/>
<path d="M255.1 205.41C255.1 207.83 253.56 209 250.18 209C246.58 209 245.28 207.65 245.28 204.74C245.28 201.83 246.56 200.46 250.25 200.46C252.76 200.46 254.27 201.04 254.84 202.21L252.83 202.69C252.5 201.88 251.67 201.48 250.28 201.48C248.13 201.48 247.58 202.5 247.58 204.71C247.58 206.92 248.15 207.94 250.28 207.94C252.05 207.94 252.93 207.22 252.93 205.8C252.93 205.67 252.93 205.54 252.9 205.4H250.49V204.42H255.03C255.08 204.77 255.1 205.11 255.1 205.41Z" fill="#1F4490"/>
</svg>
