<?xml version="1.0" encoding="UTF-8"?>
<svg id="Layer_1" data-name="Layer 1" xmlns="http://www.w3.org/2000/svg" xmlns:xlink="http://www.w3.org/1999/xlink" viewBox="0 0 350 225">
  <defs>
    <style>
      .cls-1 {
        clip-path: url(#clippath);
      }

      .cls-2 {
        fill: none;
      }

      .cls-2, .cls-3, .cls-4, .cls-5 {
        stroke-width: 0px;
      }

      .cls-3 {
        fill: #a1def9;
      }

      .cls-4 {
        fill: #fff;
      }

      .cls-5 {
        fill: #ee3725;
      }
    </style>
    <clipPath id="clippath">
      <rect class="cls-2" x="16" y="79.72" width="318" height="65.57"/>
    </clipPath>
  </defs>
  <rect id="Rectangle_1071" data-name="Rectangle 1071" class="cls-5" x="118.12" y="80.02" width="215.88" height="65.26"/>
  <g id="Group_1237" data-name="Group 1237">
    <g class="cls-1">
      <g id="Group_1236" data-name="Group 1236">
        <path id="Path_83" data-name="Path 83" class="cls-3" d="m137.16,112.5c-.01-10.37-8.23-18.87-18.59-19.24v-13.54H16v65.57h102.57v-13.55c10.37-.36,18.58-8.86,18.59-19.24"/>
        <path id="Path_84" data-name="Path 84" class="cls-4" d="m160.28,106.11c-3.85,0-5.55,3.62-5.55,7.62s1.7,7.57,5.55,7.57,5.56-3.63,5.56-7.58-1.7-7.62-5.56-7.62m-11.84-13.32h6.52v11.94h.09c1.6-2.43,4.54-3.54,7.48-3.54,4.73,0,9.83,3.81,9.83,12.49s-5.1,12.53-9.83,12.53c-3.49,0-6.38-1.06-7.8-3.67h-.1v3.03h-6.2v-32.78Zm41.03,21.17c-1.1.97-3.4,1.01-5.41,1.38-2.02.42-3.86,1.1-3.86,3.49s1.88,3.03,3.99,3.03c5.1,0,5.28-4.04,5.28-5.46v-2.43Zm-15.06-4.82c.36-6.1,5.83-7.94,11.16-7.94,4.73,0,10.42,1.05,10.42,6.75v12.35c0,2.16.23,4.32.83,5.28h-6.6c-.25-.74-.41-1.52-.46-2.3-2.15,2.03-5.04,3.09-7.99,2.94-4.5,0-8.09-2.25-8.09-7.11,0-5.37,4.04-6.66,8.09-7.21,3.99-.6,7.71-.46,7.71-3.12,0-2.8-1.93-3.21-4.22-3.21-2.48,0-4.09,1.01-4.32,3.57h-6.52Zm24.83-7.3h6.2v4.41h.09c1.31-3.02,4.28-5,7.58-5.05.48,0,.96.08,1.42.23v6.07c-.77-.16-1.56-.24-2.34-.23-4.78,0-6.42,3.44-6.42,7.62v10.7h-6.52v-23.74Zm32.69,11.57c0-3.86-1.34-7.3-5.55-7.3-3.67,0-5.28,3.21-5.28,6.75s1.28,7.12,5.28,7.12c3.71,0,5.55-3.17,5.55-6.56h0Zm6.2,10.65c0,3.9-1.38,10.51-12.31,10.51-4.68,0-10.14-2.2-10.46-7.62h6.47c.6,2.43,2.57,3.26,4.87,3.26,3.62,0,5.28-2.47,5.23-5.87v-3.12h-.1c-1.54,2.41-4.26,3.81-7.11,3.67-7.12,0-10.15-5.42-10.15-11.94,0-6.15,3.54-11.76,10.19-11.76,3.12,0,5.51,1.05,7.07,3.82h.1v-3.17h6.2v22.22Zm18.21-10.1c-1.1.97-3.4,1.01-5.41,1.38-2.03.42-3.86,1.1-3.86,3.49s1.88,3.03,4,3.03c5.09,0,5.27-4.04,5.27-5.46v-2.43Zm-15.06-4.82c.37-6.1,5.83-7.94,11.16-7.94,4.73,0,10.42,1.05,10.42,6.75v12.35c0,2.16.23,4.32.83,5.28h-6.62c-.24-.75-.4-1.52-.46-2.3-2.15,2.03-5.03,3.09-7.99,2.94-4.5,0-8.08-2.25-8.08-7.11,0-5.37,4.04-6.66,8.08-7.21,3.99-.6,7.71-.46,7.71-3.12,0-2.8-1.92-3.21-4.22-3.21-2.47,0-4.08,1.01-4.32,3.57h-6.51Zm31.54-10.97h-6.52v-5.37h6.52v5.37Zm-6.52,3.67h6.52v23.73h-6.52v-23.73Zm9.86,0h6.2v3.31h.14c1.57-2.49,4.31-3.98,7.25-3.95,6.94,0,8.68,3.91,8.68,9.78v14.6h-6.52v-13.41c0-3.91-1.15-5.83-4.18-5.83-3.54,0-5.05,1.97-5.05,6.79v12.44h-6.52v-23.73Zm30.47,16.03c.05,2.84,2.43,3.99,5.01,3.99,1.88,0,4.27-.73,4.27-3.03,0-1.97-2.71-2.66-7.39-3.67-3.76-.83-7.53-2.16-7.53-6.33,0-6.07,5.23-7.63,10.33-7.63s9.96,1.75,10.47,7.58h-6.2c-.18-2.52-2.11-3.21-4.46-3.21-1.46,0-3.62.28-3.62,2.21,0,2.34,3.67,2.66,7.39,3.53,3.81.87,7.53,2.25,7.53,6.66,0,6.25-5.41,8.27-10.84,8.27s-10.87-2.07-11.15-8.36h6.2Z"/>
        <path id="Path_85" data-name="Path 85" class="cls-5" d="m45.47,124.58h-3.72l3.07-14.44c.65-3,.21-4.94-3.33-4.94-3.04,0-6.54,1.78-7.73,7.35l-2.56,12.03h-3.72l6.45-30.33h3.71l-2.38,11.2h.09c1.35-1.39,3.68-3.59,7.22-3.59s7.43,1.39,6.1,7.69l-3.2,15.03Zm13.39-2.62c5.32,0,7.59-5.49,8.21-8.45s.69-8.45-4.62-8.45-7.59,5.49-8.22,8.45-.7,8.45,4.63,8.45m4.27-20.1c7.05,0,8.99,5.96,7.79,11.65s-5.69,11.65-12.74,11.65-8.99-5.96-7.78-11.65,5.69-11.65,12.74-11.65m12.71.63h3.5l-.66,3.13h.08c1.82-2.28,4.55-3.66,7.47-3.76,3.97,0,4.72,2.4,5.1,3.59,2.3-2.07,4.1-3.59,7.52-3.59,2.37,0,6.58,1.22,5.26,7.43l-3.25,15.29h-3.72l3.04-14.28c.64-3.04.15-5.11-3.01-5.11s-5.82,2.96-6.45,5.91l-2.87,13.48h-3.71l3.25-15.29c.39-1.86.15-4.1-2.59-4.1-2.12,0-6.11,1.35-7.39,7.35l-2.56,12.04h-3.72l4.7-22.09Zm46.75,9.29c.51-3.42-.25-6.59-4.77-6.59-3.42,0-6.8,3.17-7.52,6.59h12.29Zm2.29,5.87c-1.04,2.52-2.87,4.63-5.21,6.03-1.91,1.13-4.11,1.66-6.31,1.52-6.21,0-8.89-4.68-7.53-11.07,1.45-6.84,5.9-12.28,13.21-12.28,6.37,0,8.42,5.06,6.76,12.88h-16.12c-.98,4.6.61,7.26,4.87,7.26,3.5,0,6.15-2.7,6.63-4.34h3.71Z"/>
      </g>
    </g>
  </g>
</svg>