<?xml version="1.0" encoding="UTF-8"?>
<svg id="Layer_1" data-name="Layer 1" xmlns="http://www.w3.org/2000/svg" viewBox="0 0 350 225">
  <defs>
    <style>
      .cls-1 {
        fill: #7dc243;
        stroke-width: 0px;
      }
    </style>
  </defs>
  <path class="cls-1" d="m277.37,124.47l9.53-31.73,9.55,31.73h-19.08Zm-69.88,10.42h-5.88v-43.94h5.81c8.81,0,18.58,3.68,18.58,21.86,0,16.13-8.65,22.08-18.51,22.08m-155-10.42l9.75-32.12,9.58,32.12h-19.32Zm251.78-56.31h-32.78l-18.74,54.42c.88-4.52,1.02-8.12,1.02-9.71,0-22.79-12.99-44.71-43.53-44.71h-35.02l.06,54.14c-3.01-15.38-16.97-19.53-34.33-24.83-6.51-1.99-10.08-5.19-8.78-8.18,1.11-2.59,5.08-3.41,9.92-2.73,7.37,1.03,13.24,3.53,18.93,6.62l7.75-19.27c-1.76-.91-14.31-8.43-30.02-8.43-21.97,0-35.95,10.72-35.95,26.61,0,14.13,8.69,22.36,24.62,27,17.12,4.96,21.47,6.98,20.96,11.96-.47,4.24-11.09,9.45-37.08-6.6l-7.7,16.04-23.89-72.34h-32.76l-30.96,89.94h25.85l4.01-12.73h32.57l3.84,12.73h27.15l-3.09-8.79c9.16,5.32,20.55,10.19,34.15,10.19,20.81,0,32.07-11.44,34.78-22.41v21.01h34.95c20.84,0,31.75-10,37.43-20.69l-7.12,20.69h25.82l4.16-12.73h32.55l3.75,12.73h27.18l-29.71-89.94"/>
</svg>