<?xml version="1.0" encoding="UTF-8"?>
<svg id="Layer_1" data-name="Layer 1" xmlns="http://www.w3.org/2000/svg" xmlns:xlink="http://www.w3.org/1999/xlink" viewBox="0 0 350 225">
  <defs>
    <style>
      .cls-1 {
        fill: url(#linear-gradient);
      }

      .cls-1, .cls-2, .cls-3, .cls-4, .cls-5, .cls-6, .cls-7 {
        stroke-width: 0px;
      }

      .cls-2 {
        fill: url(#linear-gradient-2);
      }

      .cls-3 {
        fill: #fac212;
      }

      .cls-4 {
        fill: #212659;
      }

      .cls-5 {
        fill: #d71f27;
      }

      .cls-6 {
        fill: #fff;
      }

      .cls-7 {
        fill: #ec7723;
      }
    </style>
    <linearGradient id="linear-gradient" x1="174.04" y1="107.39" x2="218.48" y2="91.22" gradientUnits="userSpaceOnUse">
      <stop offset="0" stop-color="#98d1ee"/>
      <stop offset=".04" stop-color="#8dceee"/>
      <stop offset=".14" stop-color="#75c9ee"/>
      <stop offset=".25" stop-color="#64c5ee"/>
      <stop offset=".36" stop-color="#5ac2ee"/>
      <stop offset=".51" stop-color="#57c2ef"/>
      <stop offset=".57" stop-color="#5bc3ef"/>
      <stop offset=".64" stop-color="#67c7ef"/>
      <stop offset=".7" stop-color="#7bcdf0"/>
      <stop offset=".77" stop-color="#97d6f2"/>
      <stop offset=".83" stop-color="#bbe2f3"/>
      <stop offset=".84" stop-color="#bde3f4"/>
      <stop offset=".86" stop-color="#b1dcef"/>
      <stop offset=".9" stop-color="#91cce4"/>
      <stop offset=".95" stop-color="#5fb1d2"/>
      <stop offset="1" stop-color="#2f98c1"/>
    </linearGradient>
    <linearGradient id="linear-gradient-2" x1="160.45" y1="123.46" x2="160.45" y2="49.6" gradientUnits="userSpaceOnUse">
      <stop offset="0" stop-color="#2f98c1"/>
      <stop offset="0" stop-color="#389cc4"/>
      <stop offset=".06" stop-color="#7fc2dd"/>
      <stop offset=".11" stop-color="#abd9ed"/>
      <stop offset=".13" stop-color="#bde3f4"/>
      <stop offset=".13" stop-color="#b8e1f3"/>
      <stop offset=".17" stop-color="#98d7f2"/>
      <stop offset=".22" stop-color="#7ecff1"/>
      <stop offset=".27" stop-color="#6ac8f0"/>
      <stop offset=".32" stop-color="#5cc4ef"/>
      <stop offset=".39" stop-color="#54c1ef"/>
      <stop offset=".51" stop-color="#52c1ef"/>
      <stop offset=".6" stop-color="#55c1ef"/>
      <stop offset=".67" stop-color="#5ec5ef"/>
      <stop offset=".74" stop-color="#6fcaf0"/>
      <stop offset=".8" stop-color="#86d1f1"/>
      <stop offset=".86" stop-color="#a4dbf2"/>
      <stop offset=".89" stop-color="#bde3f4"/>
      <stop offset=".91" stop-color="#b1dcef"/>
      <stop offset=".94" stop-color="#91cce4"/>
      <stop offset=".97" stop-color="#5fb1d2"/>
      <stop offset="1" stop-color="#2f98c1"/>
    </linearGradient>
  </defs>
  <path class="cls-3" d="m98.11,110.44c0-28.61,0-57.21,0-85.82,0-3.85,2.62-6.45,6.48-6.45,46.94,0,93.87,0,140.81,0,3.89,0,6.48,2.61,6.48,6.51,0,57.17,0,114.34,0,171.5,0,3.94-2.59,6.52-6.54,6.52-46.96,0-93.92,0-140.88,0-3.28,0-5.76-2.07-6.3-5.29-.06-.38-.06-.77-.06-1.16,0-28.61,0-57.21,0-85.82Z"/>
  <g>
    <path class="cls-4" d="m237.37,112.57c0,25.23,0,50.45,0,75.68,0,.31,0,.63-.01.94-.07,1.23-1,2.19-2.24,2.28-.2.01-.4,0-.61,0-39.69,0-79.38,0-119.08,0-.38,0-.77-.02-1.13-.13-.99-.28-1.62-1.1-1.68-2.12-.02-.27-.01-.54-.01-.81,0-50.61,0-101.22,0-151.83,0-.25,0-.49,0-.74.06-1.3,1.04-2.26,2.34-2.32.18,0,.36,0,.54,0,39.67,0,79.34,0,119.01,0,.38,0,.77.02,1.13.12,1.02.28,1.66,1.11,1.71,2.17.02.31.01.63.01.94,0,25.27,0,50.54,0,75.81Z"/>
    <path class="cls-3" d="m94.61,112.5c0-29.92,0-59.84,0-89.76,0-4.02,2.74-6.75,6.77-6.75,49.08,0,98.16,0,147.23,0,4.07,0,6.78,2.73,6.78,6.81,0,59.79,0,119.58,0,179.38,0,4.12-2.71,6.82-6.84,6.82-49.1,0-98.2,0-147.3,0-3.43,0-6.02-2.17-6.58-5.53-.07-.4-.06-.81-.06-1.21,0-29.92,0-59.84,0-89.76Zm153.1-.02c0-28.12,0-56.24,0-84.36,0-2.61-1.91-4.57-4.45-4.57-45.51,0-91.01,0-136.52,0-.27,0-.54,0-.8.07-2.33.52-3.65,2.2-3.65,4.64,0,56.02,0,112.04,0,168.05,0,.25,0,.49,0,.74.03,2.45,1.97,4.4,4.42,4.4,45.53,0,91.06,0,136.59,0,.25,0,.5,0,.73-.06,2.33-.5,3.68-2.2,3.68-4.62,0-28.1,0-56.2,0-84.3Z"/>
    <path class="cls-7" d="m247.71,112.48c0,28.1,0,56.2,0,84.3,0,2.42-1.35,4.11-3.68,4.62-.24.05-.49.06-.73.06-45.53,0-91.06,0-136.59,0-2.45,0-4.39-1.95-4.42-4.4,0-.25,0-.49,0-.74,0-56.02,0-112.04,0-168.05,0-2.44,1.31-4.12,3.65-4.64.26-.06.53-.07.8-.07,45.51,0,91.01,0,136.52,0,2.54,0,4.45,1.96,4.45,4.57,0,28.12,0,56.24,0,84.36Zm-5.77.02c0-7.73,0-15.45,0-23.18,0-18.85,0-37.69,0-56.54,0-.45,0-.91-.11-1.33-.42-1.54-1.64-2.37-3.41-2.37-42.27,0-84.55,0-126.82,0-.13,0-.27,0-.4,0-1.47.07-2.69,1.02-3.03,2.43-.11.47-.09.98-.09,1.47,0,53.01,0,106.02,0,159.03,0,.31-.01.63.01.94.01.22.05.45.11.66.47,1.52,1.65,2.3,3.47,2.3,42.23,0,84.46,0,126.69,0,.13,0,.28.03.4,0,.59-.17,1.25-.26,1.76-.57,1.13-.68,1.44-1.77,1.44-3.06-.02-26.6-.01-53.19-.01-79.79Z"/>
    <path class="cls-5" d="m241.93,112.5c0,26.6,0,53.19.01,79.79,0,1.28-.31,2.38-1.44,3.06-.52.31-1.17.4-1.76.57-.12.04-.27,0-.4,0-42.23,0-84.46,0-126.69,0-1.82,0-2.99-.78-3.47-2.3-.07-.21-.1-.44-.11-.66-.02-.31-.01-.63-.01-.94,0-53.01,0-106.02,0-159.03,0-.49-.03-1,.09-1.47.34-1.41,1.56-2.36,3.03-2.43.13,0,.27,0,.4,0,42.27,0,84.55,0,126.82,0,1.77,0,2.99.83,3.41,2.37.12.42.11.89.11,1.33,0,18.85,0,37.69,0,56.54,0,7.73,0,15.45,0,23.18Zm-4.56.07c0-25.27,0-50.54,0-75.81,0-.31,0-.63-.01-.94-.05-1.06-.69-1.89-1.71-2.17-.36-.1-.75-.12-1.13-.12-39.67,0-79.34,0-119.01,0-.18,0-.36,0-.54,0-1.3.05-2.27,1.02-2.34,2.32-.01.25,0,.49,0,.74,0,50.61,0,101.22,0,151.83,0,.27,0,.54.01.81.06,1.02.69,1.84,1.68,2.12.36.1.75.13,1.13.13,39.69,0,79.38,0,119.08,0,.2,0,.41,0,.61,0,1.23-.09,2.17-1.05,2.24-2.28.02-.31.01-.63.01-.94,0-25.23,0-50.45,0-75.68Z"/>
    <g>
      <path class="cls-6" d="m184.88,165.83v-29.56c.14-.02.29-.05.44-.05,4.22,0,8.44-.02,12.67,0,2.12.01,4.21.29,6.23.96,4.14,1.36,6.82,4.14,7.86,8.38.94,3.84.87,7.7-.18,11.52-1.21,4.38-4.12,7.02-8.49,8.12-1.75.44-3.54.63-5.33.64-4.24.02-8.49,0-12.73,0-.13,0-.26-.01-.46-.02Zm8.96-6.34c1.63-.08,3.23-.04,4.79-.26,2.55-.34,4.24-1.8,4.9-4.34.6-2.32.66-4.66.19-7-.5-2.5-1.95-4.18-4.46-4.87-1.78-.49-3.59-.36-5.43-.37v16.84Z"/>
      <path class="cls-6" d="m134.51,160.42c-.46,1.78-.92,3.58-1.39,5.4h-9.55c3.09-10.01,6.46-19.89,10.44-29.57h11.71c3.98,9.68,7.35,19.54,10.44,29.56h-9.55c-.45-1.76-.92-3.56-1.39-5.38h-10.72Zm5.41-18.7h-.19c-1.3,4.06-2.59,8.12-3.9,12.23h8.02c-1.22-4.15-2.47-8.22-3.92-12.23Z"/>
      <path class="cls-6" d="m158.99,136.24h8.94c0,.26,0,.5,0,.74,0,6.24,0,12.48,0,18.72,0,.6.04,1.21.13,1.81.13.9.69,1.45,1.58,1.6.53.09,1.07.14,1.61.14,2.67.01,5.34,0,8.01,0h.7c.44,2.19.88,4.34,1.32,6.54-.21.02-.37.05-.54.05-4.71,0-9.43.02-14.14-.02-.93,0-1.89-.14-2.78-.39-2.7-.77-4.14-2.69-4.64-5.38-.13-.7-.18-1.43-.18-2.14-.01-7.07,0-14.14,0-21.21v-.46Z"/>
      <path class="cls-6" d="m217.57,136.25h8.86v29.55h-8.86v-29.55Z"/>
    </g>
    <path class="cls-1" d="m209.91,87.29c3.17,0,5.42,1.42,6.77,4.28,1.46,3.08,2.93,6.15,4.4,9.23.05.1.08.19.17.4-.71-.66-1.3-1.09-1.96-1.49-1.31-.8-2.79-.92-4.28-.92-1.54,0-17.42,0-32.42,0l3.9-11.47c11.64,0,22.84,0,23.41,0Zm18.08,30.12c-1.47-3.08-2.94-6.15-4.4-9.23-1.36-2.85-3.61-4.28-6.77-4.28-.78,0-21.5,0-35.96,0l-3.9,11.47c17.05,0,42.98,0,44.97,0,1.49,0,2.97.13,4.28.92.66.4,1.24.84,1.96,1.49-.09-.2-.13-.3-.17-.4Zm-39.75-35.23c8.34,0,17.75,0,19.99.01,1.49,0,2.97.13,4.28.92.66.4,1.24.83,1.96,1.49-.09-.2-.13-.3-.17-.4-1.47-3.08-2.94-6.15-4.4-9.23-1.36-2.85-3.61-4.28-6.77-4.28-.83,0-6.08,0-10.99,0l-3.9,11.47Z"/>
    <path class="cls-2" d="m181.34,49.6c-1.92.41-3.46,1.43-4.52,2.97-.96,1.41-1.76,2.98-2.34,4.59-1.64,4.52-3.15,9.09-4.7,13.64-3.35,9.86-6.7,19.72-10.04,29.59-.99,2.93-1.95,5.87-2.98,8.78-.76,2.15-1.52,4.3-2.33,6.43,0,0,0,.01,0,.02-.17.49-.36.97-.56,1.44-.06.16-.12.31-.19.47-.7,1.74-1.76,3.28-3.29,4.42-.15.11-.3.21-.45.31-1.17.79-2.52,1.2-4.07,1.21-1.64,0-3.28,0-4.92,0h-.05c-1.69,0-3.38,0-5.07,0-.14,0-.28,0-.42,0,1.92-.41,3.46-1.43,4.52-2.97.96-1.41,1.76-2.98,2.34-4.59,1.64-4.52,3.15-9.09,4.7-13.64,3.35-9.86,6.7-19.72,10.04-29.59.99-2.93,1.95-5.87,2.98-8.78.76-2.15,1.52-4.3,2.33-6.43,0,0,0-.01,0-.02.17-.49.36-.97.56-1.44.06-.16.12-.31.19-.47.7-1.74,1.76-3.28,3.29-4.42.15-.11.3-.21.45-.31,1.17-.79,2.52-1.21,4.07-1.21,1.64,0,3.28,0,4.92,0,.02,0,.04,0,.05,0,1.69,0,3.38,0,5.07,0h.42Zm-18.28,0c-1.69,0-3.38,0-5.07,0-.02,0-.04,0-.05,0-1.64,0-3.28,0-4.92,0-1.54,0-2.89.42-4.07,1.21-.15.1-.3.2-.45.31-1.54,1.14-2.6,2.69-3.29,4.42-.06.16-.12.31-.19.47-.2.47-.39.95-.56,1.44,0,0-22.62,66.02-22.62,66.02.33,0,.88,0,1.21,0h.05c1.64,0,3.28,0,4.92,0,1.54,0,2.89-.42,4.07-1.21.15-.1.3-.2.45-.31,1.54-1.14,2.6-2.69,3.29-4.42.06-.16.12-.31.19-.47.2-.47.39-.95.56-1.44,0,0,0-.01,0-.02.81-2.13,1.57-4.28,2.33-6.43,1.03-2.92,1.99-5.85,2.98-8.78,3.35-9.86,6.69-19.73,10.04-29.59,1.55-4.55,3.05-9.12,4.7-13.64.58-1.61,1.38-3.18,2.34-4.59,1.05-1.54,2.6-2.56,4.52-2.97h-.42Zm35.58,0c-1.69,0-3.38,0-5.07,0-.02,0-.04,0-.05,0-1.64,0-3.28,0-4.92,0-1.54,0-2.89.42-4.07,1.21-.15.1-.3.2-.45.31-1.54,1.14-2.6,2.69-3.29,4.42-.06.16-.12.31-.19.47-.2.47-.39.95-.56,1.44,0,0,0,.01,0,.02-.81,2.13-1.57,4.28-2.33,6.43-1.03,2.92-1.99,5.85-2.98,8.78-3.35,9.86-6.69,19.73-10.04,29.59-1.55,4.55-3.05,9.12-4.7,13.64-.58,1.61-1.38,3.18-2.34,4.59-1.05,1.54-2.6,2.56-4.52,2.97.14,0,.28,0,.42,0,1.69,0,3.38,0,5.07,0h.05c1.64,0,3.28,0,4.92,0,1.54,0,2.89-.42,4.07-1.21.15-.1.3-.2.45-.31,1.54-1.14,2.6-2.69,3.29-4.42.06-.16.12-.31.19-.47.2-.47.39-.95.56-1.44,0,0,0-.01,0-.02.81-2.13,1.57-4.28,2.33-6.43,1.03-2.92,1.99-5.85,2.98-8.78,3.35-9.86,6.69-19.73,10.04-29.59,1.55-4.55,3.05-9.12,4.7-13.64.58-1.61,1.38-3.18,2.34-4.59,1.05-1.54,2.6-2.56,4.52-2.97h-.42Z"/>
  </g>
</svg>