<?xml version="1.0" encoding="UTF-8"?>
<svg id="Layer_1" data-name="Layer 1" xmlns="http://www.w3.org/2000/svg" viewBox="0 0 350 225">
  <defs>
    <style>
      .cls-1 {
        fill: #2a3172;
      }

      .cls-1, .cls-2 {
        stroke-width: 0px;
      }

      .cls-2 {
        fill: #f04e25;
      }
    </style>
  </defs>
  <rect class="cls-2" x="100.31" y="126.71" width="150.19" height="1.12"/>
  <rect class="cls-2" x="293.48" y="126.71" width="40.51" height="1.12"/>
  <g>
    <path class="cls-1" d="m269.46,142.72v1.69h2.32v2.33c-.88.56-1.85.79-2.89.79-2.84,0-4.9-2.03-4.9-4.74s2.06-4.74,4.92-4.74c1.39,0,2.56.44,3.58,1.43l1.09-1.09c-1.13-1.25-2.78-1.9-4.74-1.9-3.83,0-6.61,2.66-6.61,6.31s2.79,6.31,6.58,6.31c1.73,0,3.44-.53,4.67-1.57v-4.81h-4.01Z"/>
    <polygon class="cls-1" points="110.29 136.62 110.29 148.96 108.53 148.96 108.53 143.46 101.44 143.46 101.44 148.96 99.68 148.96 99.68 136.62 101.44 136.62 101.44 141.92 108.53 141.92 108.53 136.62 110.29 136.62"/>
    <path class="cls-1" d="m114.21,144.29c0-2.79,2.06-4.76,4.87-4.76s4.85,1.97,4.85,4.76-2.05,4.78-4.85,4.78-4.87-1.99-4.87-4.78m8.01,0c0-1.99-1.34-3.28-3.14-3.28s-3.16,1.29-3.16,3.28,1.36,3.3,3.16,3.3,3.14-1.31,3.14-3.3"/>
    <path class="cls-1" d="m143.11,143.58v5.38h-1.69v-5.18c0-1.83-.88-2.73-2.42-2.73-1.69,0-2.8,1.08-2.8,3.1v4.81h-1.69v-5.18c0-1.83-.88-2.73-2.42-2.73-1.69,0-2.8,1.08-2.8,3.1v4.81h-1.69v-9.34h1.62v1.39c.67-.95,1.82-1.48,3.23-1.48s2.63.56,3.25,1.73c.7-1.06,2.01-1.73,3.6-1.73,2.27,0,3.83,1.31,3.83,4.06"/>
    <path class="cls-1" d="m156.01,144.85h-7.58c.21,1.64,1.53,2.73,3.39,2.73,1.09,0,2.01-.37,2.7-1.13l.93,1.09c-.85.99-2.13,1.52-3.69,1.52-3.02,0-5.03-1.99-5.03-4.78s1.99-4.76,4.69-4.76,4.62,1.94,4.62,4.81c0,.14-.02.35-.04.51m-7.58-1.22h5.99c-.18-1.57-1.36-2.68-3-2.68s-2.82,1.09-3,2.68"/>
    <path class="cls-1" d="m163.57,144.09c0-.92.74-1.6,1.6-1.6s1.59.69,1.59,1.6-.74,1.62-1.59,1.62-1.6-.67-1.6-1.62"/>
    <polygon class="cls-1" points="175.42 136.62 177.19 136.62 177.19 147.43 183.87 147.43 183.87 148.96 175.42 148.96 175.42 136.62"/>
    <path class="cls-1" d="m195.26,144.85h-7.58c.21,1.64,1.53,2.73,3.39,2.73,1.09,0,2.01-.37,2.7-1.13l.93,1.09c-.85.99-2.13,1.52-3.68,1.52-3.02,0-5.03-1.99-5.03-4.78s1.99-4.76,4.69-4.76,4.62,1.94,4.62,4.81c0,.14-.02.35-.04.51m-7.58-1.22h6c-.18-1.57-1.36-2.68-3-2.68s-2.82,1.09-3,2.68"/>
    <path class="cls-1" d="m198.66,136.72c0-.62.49-1.11,1.15-1.11s1.15.48,1.15,1.08c0,.63-.48,1.13-1.15,1.13s-1.15-.48-1.15-1.09m.3,2.89h1.69v9.35h-1.69v-9.35Z"/>
    <path class="cls-1" d="m204.02,147.97l.7-1.34c.79.56,2.06.97,3.28.97,1.57,0,2.22-.48,2.22-1.27,0-2.1-5.91-.28-5.91-4,0-1.68,1.5-2.8,3.9-2.8,1.22,0,2.59.32,3.4.85l-.72,1.34c-.85-.55-1.78-.74-2.7-.74-1.48,0-2.2.55-2.2,1.29,0,2.2,5.93.41,5.93,4.04,0,1.69-1.55,2.77-4.04,2.77-1.55,0-3.09-.48-3.86-1.09"/>
    <path class="cls-1" d="m224.07,139.61v9.35h-1.6v-1.41c-.69.97-1.85,1.52-3.17,1.52-2.42,0-4.02-1.32-4.02-4.07v-5.38h1.69v5.18c0,1.83.92,2.75,2.52,2.75,1.76,0,2.89-1.09,2.89-3.1v-4.83h1.69Z"/>
    <path class="cls-1" d="m233.64,139.53v1.64c-.14-.02-.26-.02-.39-.02-1.82,0-2.94,1.11-2.94,3.16v4.65h-1.69v-9.35h1.62v1.57c.6-1.09,1.76-1.66,3.4-1.66"/>
    <path class="cls-1" d="m245.37,144.85h-7.58c.21,1.64,1.53,2.73,3.39,2.73,1.09,0,2.01-.37,2.7-1.13l.93,1.09c-.85.99-2.13,1.52-3.69,1.52-3.02,0-5.03-1.99-5.03-4.78s1.99-4.76,4.69-4.76,4.62,1.94,4.62,4.81c0,.14-.02.35-.04.51m-7.58-1.22h5.99c-.18-1.57-1.36-2.68-3-2.68s-2.82,1.09-3,2.68"/>
    <path class="cls-1" d="m252.22,144.09c0-.92.74-1.6,1.6-1.6s1.59.69,1.59,1.6-.74,1.62-1.59,1.62-1.6-.67-1.6-1.62"/>
    <path class="cls-1" d="m296.36,139.53v1.64c-.14-.02-.26-.02-.39-.02-1.82,0-2.94,1.11-2.94,3.16v4.65h-1.69v-9.35h1.62v1.57c.6-1.09,1.76-1.66,3.4-1.66"/>
    <path class="cls-1" d="m308.49,135.88v13.08h-1.62v-1.48c-.76,1.06-1.96,1.59-3.33,1.59-2.73,0-4.73-1.92-4.73-4.78s1.99-4.76,4.73-4.76c1.32,0,2.49.49,3.26,1.5v-5.15h1.69Zm-1.67,8.41c0-1.99-1.36-3.28-3.14-3.28s-3.16,1.29-3.16,3.28,1.36,3.3,3.16,3.3,3.14-1.31,3.14-3.3"/>
    <path class="cls-1" d="m286.87,139.53v9.43h-1.62v-1.48c-.76,1.06-1.96,1.59-3.33,1.59-2.73,0-4.73-1.92-4.73-4.78s1.99-4.76,4.73-4.76c1.32,0,2.49.49,3.26,1.5v-1.5h1.69Zm-1.68,4.76c0-1.99-1.36-3.28-3.14-3.28s-3.16,1.29-3.16,3.28,1.36,3.3,3.16,3.3,3.14-1.31,3.14-3.3"/>
  </g>
  <g>
    <path class="cls-1" d="m321.43,144.85h-7.58c.21,1.64,1.53,2.73,3.39,2.73,1.09,0,2.01-.37,2.7-1.13l.93,1.09c-.84.99-2.13,1.52-3.68,1.52-3.02,0-5.03-1.99-5.03-4.78s1.99-4.76,4.69-4.76,4.62,1.94,4.62,4.81c0,.14-.02.35-.04.51m-7.58-1.22h6c-.18-1.57-1.36-2.68-3-2.68s-2.82,1.09-3,2.68"/>
    <path class="cls-1" d="m334,143.58v5.38h-1.69v-5.18c0-1.83-.92-2.73-2.52-2.73-1.8,0-2.96,1.08-2.96,3.1v4.81h-1.69v-9.34h1.62v1.41c.69-.95,1.89-1.5,3.37-1.5,2.27,0,3.88,1.31,3.88,4.06"/>
  </g>
  <g>
    <polygon class="cls-1" points="103.78 114.18 103.78 118.92 100.31 118.92 100.31 105.09 103.78 105.09 103.78 109.81 115.76 109.81 115.76 114.18 103.78 114.18"/>
    <path class="cls-1" d="m108.92,90.93h6.84v4.19h-6.15c-1.72,0-2.45.75-2.45,1.96,0,1.35.84,2.38,2.82,2.38h5.78v4.19h-15.44v-4.19h4.59c-.86-.93-1.3-2.18-1.3-3.6,0-2.8,1.61-4.94,5.32-4.94"/>
    <path class="cls-1" d="m110.84,75.97v8.69c1.21-.35,1.92-1.39,1.92-2.93,0-1.17-.33-1.94-1.04-2.76l2.29-2.21c1.28,1.15,1.94,2.82,1.94,5.1,0,4.26-2.62,7.02-6.2,7.02s-6.15-2.8-6.15-6.57c0-3.53,2.25-6.4,6.2-6.4.31,0,.71.04,1.04.07m-2.21,8.76v-4.9c-1.26.22-2.05,1.15-2.05,2.45s.79,2.21,2.05,2.45"/>
    <path class="cls-1" d="m162.34,116.95h0l-7.89-11.49c5.36-2.59,8.43-7.26,8.43-13.61,0-9.85-7.39-15.95-19.15-15.95h-17.83c-1.03,0-1.87.84-1.87,1.87v41.23h12.19v-11.45h6.65l7.82,11.45h13.05l-1.41-2.05Zm-26.11-29.29c0-1.19.96-2.15,2.15-2.15h4.62c5.05,0,7.57,2.34,7.57,6.34s-2.52,6.28-7.57,6.28h-6.77v-10.47Z"/>
    <path class="cls-1" d="m248.66,99.91v19.09h-11.7v-17.18c0-4.8-2.09-6.83-5.48-6.83-3.76,0-6.65,2.34-6.65,7.88v16.13h-11.7v-33.37h11.14v3.63c2.65-2.77,6.4-4.19,10.59-4.19,7.82,0,13.79,4.49,13.79,14.84"/>
  </g>
  <g>
    <path class="cls-1" d="m292.38,85.63v27.28c0,12.62-7.14,18.59-19.58,18.59-6.4,0-12.5-1.48-16.56-4.37l4.25-8.19c2.77,2.22,7.33,3.57,11.27,3.57,6.28,0,8.93-2.83,8.93-8.07v-1.11c-2.28,2.65-5.67,3.94-9.91,3.94-8.87,0-16.38-6.28-16.38-16.13s7.51-16.07,16.38-16.07c4.62,0,8.19,1.48,10.47,4.62v-4.06h11.14Zm-11.58,15.52c0-4.06-3.08-6.77-7.27-6.77s-7.33,2.71-7.33,6.77,3.14,6.83,7.33,6.83,7.27-2.77,7.27-6.83"/>
    <path class="cls-1" d="m333.82,105.27h-24.26c.98,3.39,3.88,5.36,8.19,5.36,3.26,0,5.42-.92,7.7-2.89l6.16,6.4c-3.2,3.57-7.88,5.42-14.22,5.42-11.88,0-19.58-7.33-19.58-17.3s7.82-17.18,18.35-17.18c9.85,0,17.86,6.28,17.86,17.3,0,.86-.12,1.97-.18,2.89m-24.44-6.16h13.67c-.62-3.51-3.2-5.73-6.83-5.73s-6.16,2.22-6.83,5.73"/>
  </g>
  <path class="cls-1" d="m205.75,85.08v33.92h-11.14v-3.32c-2.22,2.65-5.48,3.88-9.79,3.88-9.11,0-16.44-6.65-16.44-17.3s7.33-17.18,16.44-17.18c3.88,0,7.02,1.11,9.24,3.45v-3.45h11.7Zm-11.51,17.18c0-5.05-3.02-7.88-6.96-7.88s-7.02,2.83-7.02,7.88,3.02,8,7.02,8,6.96-2.89,6.96-8"/>
  <g>
    <path class="cls-2" d="m68.09,127.79h0l-6.19-9.02c4.21-2.03,6.62-5.71,6.62-10.69,0-7.74-5.8-12.52-15.04-12.52h-14.01c-.81,0-1.47.66-1.47,1.47v32.38h9.57v-8.99h5.22l6.14,8.99h10.25l-1.11-1.61Zm-20.51-23c0-.93.76-1.69,1.69-1.69h3.63c3.97,0,5.95,1.84,5.95,4.98s-1.98,4.93-5.95,4.93h-5.32v-8.22Z"/>
    <path class="cls-2" d="m52.58,75.9c-20.2,0-36.58,16.38-36.58,36.58s16.38,36.58,36.58,36.58,36.58-16.38,36.58-36.58-16.38-36.58-36.58-36.58m0,66.47c-16.48,0-29.89-13.41-29.89-29.89s13.41-29.89,29.89-29.89,29.89,13.41,29.89,29.89-13.41,29.89-29.89,29.89"/>
  </g>
</svg>