<?xml version="1.0" encoding="UTF-8"?>
<svg id="Layer_1" data-name="Layer 1" xmlns="http://www.w3.org/2000/svg" viewBox="0 0 350 225">
  <defs>
    <style>
      .cls-1 {
        fill-rule: evenodd;
      }

      .cls-1, .cls-2, .cls-3 {
        stroke-width: 0px;
      }

      .cls-1, .cls-3 {
        fill: #00a6b9;
      }

      .cls-2 {
        fill: #ca2328;
      }
    </style>
  </defs>
  <g id="layer1">
    <g id="g5442">
      <path id="path5444" class="cls-2" d="m189.75,87.01c-.23.31-.54.55-.76.67-.13.14-.54.23-.66.1-.22-.1,0-.49.17-.77.09-.17.23-.26.26-.3.06-.06,1.14-.63,1.3-.54.12.09,0,.32-.08.48-.03.14-.14.27-.22.36m-10.31,11.07v.27s-1.21.32-1.34.23c0,0,.02-.09.07-.23.11-.04.18-.13.28-.27.09-.03.17-.12.32-.22.26-.13.67-.32.67-.32,0,0,0,.54,0,.54Zm-4.2,2.99c-.13.28-.32.51-.39.62-.06.06-.15.09-.22.06-.15,0-.12-.14,0-.33.03-.07.07-.17.17-.35.22-.35.5-.74.61-.71.11.1,0,.39-.17.71m-14.28-2.99c-.64-.7-.8-1.17-1.87-1.37-.46-.1-.94-.1-1.35-.22-.35-.14-.64-.33-.97-.49-.68-.32-1.53-.41-2.2-.67-.75-.35-1.13-.68-2.24-.23-.31.14-.53.36-.82.49-.79.32-1.53.32-1.99.9-.29.42-.35,1.03-.67,1.29-.13.13-.39.22-.74.3-1.22.27-3.37.13-3.76,0-.32-.12-.99-.44-1.25-.67-.31-.31-.42-.31-.97-.03-.22.09-.95.45-1.43.7-.17.13-.32.19-.39.27-.29.28-.41.5-.29.73.13.23.39.39.5.62.08.25-.15.71-.18,1.12v.26c0,.23.03.46,0,.68-.03.32-.23.53-.32.8-.22.76.23,1.02.39,2.1.06.31-.04.95-.3,1.3-.15.12-.15.23-.15.74v5.59c0,.48,0,.57.15.8.07.18.13.35.19.54.17.76-.73,14.33-.99,14.81-.2.33-.36.6-.51.89-.17.51.15,3.05-.03,5.27-.22,3.5-1.16,8.32-.93,8.41.07.08.21.08.26.17.09.22-.35,1.22-.23,1.53.04.27.67.42.76.71.13.39-.13,1.33,0,1.48.06.04.17.04.28.07.26.14.44.82.82,1.22.37.35,1.04.53,1.35.79.15.19.21.33.31.55.17.26,4.17,2.31,4.61,2.31.71.09,4.32-.9,5.53-1.64.36-.28.48-.54.52-1.12,0-.5-.07-.99,0-1.45.14-.84,1.75-3.24,2.32-3.89.34-.3.63-.61.89-.94.59-.76,1.53-3.12,2.23-4.01.27-.36.53-.67.86-.93.79-.86,2.45-3.31,3.06-4.52.67-1.33,1.17-2.32,2.51-3.44.41-.29.82-.53,1.11-.88.49-.5.75-1.22,1.2-1.92.77-1.12,1.83-2.2,2.43-3.22.11-.19.22-.35.3-.58.45-.77,3.1-4.12,3.93-4.87.37-.32.73-.55,1.12-.94.37-.26,1.43-1.53,1.13-1.92-.14-.22-.27-.22-.14-.61.06-.09.09-.15.22-.19.35-.09,1.29-.09,1.29-.09,0,0-.13-1.26,0-1.61.04-.13.82-.39,1.35-.58.35-.1,4.4-5.15,6.19-6.88.86-.8,1.31-1.03,1.8-2.09.63-1.35.52-1.76,1.38-2.47.19-.17.45-.35.71-.52.54-.37.77-.5,1.09-1.17.13-.27.22-.49.39-.75.13-.19.32-.36.54-.55.23-.17.53-.39.81-.56.54-.42,2.93-3.31,3.2-3.9.09-.12.14-.31.17-.45.23-.44,2.92-3.35,5.64-6.16,1.16-1.2,2.32-2.41,3.28-3.38.86-.88,4.04-5.42,4.39-6.26.36-.79.55-1.21,1.29-1.82.58-.45,1.7-1.08,1.74-1.97,0-.27-.35-.44-.76-.4-.66.18-.98.9-1.45,1.34-.65.58-2.24,1.47-2.24,1.47,0,0-1.69-1.29-2.41-1.67-.35-.17-.72-.17-1.11.19-.22.18-.22.31.09.44,0,0,.14.03.21.03.15,0,.15.06.15.29v.52s-1.75-.14-2.1,0c-.32.09-.68.77-1.08,1.07-.19.14-.45.23-.63.4-.23.26-.27.7-.45.98-.19.37-.49.33-1.13.5-.56.13-.7.36-1,.8-.23.27-.5.48-.76.71-.81.63-1.84,1.03-2.64,1.7-.26.28-.58.68-.18.78.31.12.9-.23,1.12-.37.31-.13,1.02-.45,1.3-.41.11.1-.34.78-.68,1.11-.41.37-4.74,1.87-6,2.64-.42.23-.84.53-1.09.93-.11.1-.15.23-.22.36-.06.09-.16.23-.23.31-.48.5-1.79,1.08-1.92,1.39-.09.19-.09.44-.23.64-.17.36-.77.65-1.13,1.02-.39.48-.44,1.07-.79,1.54-.31.41-2.99,2.06-3.17,2.37-.05.1-.09.23-.17.33-.19.23-.45.39-.58.61-.15.25-.19.49-.25.76-.19.3-1.28.97-1.84,1.61-.15.13-.22.3-.37.48-.27.36-.49.77-.74.91-.27.17-.64.26-1,.39-.9.37-.9.95-1.25,1.69-.07.13-.18.28-.26.46-.41.54-1.31,1.08-1.79,1.7-.46.57-.87,1.48-1.2,1.79-.39.21-.83.36-1.12.62-.23.27-.32.59-.54.94-.22.31-1.77,1.12-2.68,1.79-.89.67-1.07,1.26-1.41,1.92-.23.46-2.02,2.19-2.28,2.23-1.12.31-1.27-1.74-1.12-2.28.05-.3.11-.61.23-.94.07-.53.1-1.12.22-1.63.17-.69.49-1.42.67-2.12.23-.89.3-3.09.17-4.47-.06-.49-.1-.9-.17-1.13-.19-.51-.5-.92-.95-1.31-.17-.19-.35-.36-.54-.5,0,0-.03-.05-.03-.05Z"/>
    </g>
    <g id="g5446">
      <path id="path5448" class="cls-1" d="m16,144.69c6.17,4.22,13.36,6.18,22.12,6.18,13.51,0,23.16-7.24,24.94-17.41,1.46-8.17-2.54-12.5-11.72-15.4-6.72-2.16-11.24-2.37-10.61-5.89.41-2.37,2.71-3.71,6.83-3.71,4.74,0,9.42,1.55,13.78,4.96l5.9-12.37c-6.48-3.1-12.82-4.65-19.52-4.65-13.32,0-21.87,7.02-23.51,16.3-1.36,7.74,2.67,12.38,12.71,15.16,6.37,1.76,10.53,1.76,9.78,6-.48,2.67-3.14,4.23-7.66,4.23-6.2,0-12.48-2.48-16.93-7.13l-6.11,13.73Z"/>
    </g>
    <g id="g5450">
      <path id="path5452" class="cls-1" d="m113.41,123.44c-1.41,7.93-6.79,12.79-14.12,12.79s-10.9-4.85-9.53-12.79c1.39-7.85,6.72-12.91,14.03-12.91s10.99,5.07,9.61,12.91m18.94-25.4h-16.62l-1.46,8.36c-2.79-6.91-7.62-10.01-15.28-10.01-14.43,0-25.38,10.62-28.28,27.14-2.97,16.81,4.25,27.33,17.57,27.33,8.03,0,14.04-3.1,20.05-10.21l-1.43,8.15h16.51s8.94-50.77,8.94-50.77Z"/>
    </g>
    <g id="g5454">
      <path id="path5456" class="cls-3" d="m282.77,144.69c6.17,4.22,13.36,6.18,22.14,6.18,13.51,0,23.14-7.24,24.94-17.41,1.42-8.17-2.56-12.5-11.75-15.4-6.74-2.16-11.24-2.37-10.63-5.89.42-2.37,2.74-3.71,6.86-3.71,4.74,0,9.43,1.55,13.76,4.96l5.9-12.37c-6.46-3.1-12.79-4.65-19.5-4.65-13.32,0-21.88,7.02-23.51,16.3-1.36,7.74,2.67,12.38,12.69,15.16,6.41,1.76,10.51,1.76,9.77,6-.44,2.67-3.1,4.23-7.66,4.23-6.18,0-12.44-2.48-16.88-7.13l-6.14,13.73Z"/>
    </g>
    <g id="g5458">
      <path id="path5460" class="cls-3" d="m240.21,148.91h17.85l3.7-21.05c1.81-10.21,7.88-15.36,16.34-15.36,2.07,0,3.94.41,6,1.03l4.62-16.31c-2.12-.21-3.74-.3-4.99-.3-7.83,0-14.94,4.63-19.73,13.09l2.09-11.97h-16.92l-8.96,50.87Z"/>
    </g>
    <g id="g5462">
      <path id="path5464" class="cls-1" d="m221.33,116.94h-20.64c2.17-6.41,6.35-9.6,12.11-9.6,5.38,0,8.96,3.71,8.53,9.6m15.86,10.11l.14-.83c3.3-18.67-5.46-29.82-21.97-29.82s-30.54,12.29-33.26,27.67c-2.69,15.36,6.12,26.81,24.68,26.81,12.07,0,21.24-4.54,25.78-12.17l-12.56-5.48c-2.66,4.03-6.76,6.09-12.22,6.09-7.22,0-10.58-4.34-9.29-12.27,0,0,38.7,0,38.7,0Z"/>
    </g>
  </g>
</svg>