<svg width="350" height="225" viewBox="0 0 350 225" fill="none" xmlns="http://www.w3.org/2000/svg">
<path d="M16 135.67V88.5498H30.84C33.24 88.5498 35.47 88.6998 37.52 89.0098C39.57 89.3198 41.51 89.9198 43.35 90.8098C45.75 91.9398 47.52 93.6198 48.65 95.8598C49.78 98.0998 50.35 100.49 50.35 103.03C50.35 104.44 50.16 105.87 49.78 107.3C49.4 108.74 48.86 110.07 48.15 111.29C47.44 112.52 46.57 113.62 45.54 114.61C44.5 115.6 43.33 116.38 42.01 116.94C40.36 117.6 38.69 118.06 36.99 118.32C35.29 118.58 33.57 118.71 31.83 118.71H25.33V135.67H16ZM25.33 110.59H30.63C32 110.59 33.23 110.52 34.34 110.38C35.45 110.24 36.4 109.98 37.2 109.6C38.57 108.99 39.53 108.14 40.1 107.06C40.67 105.98 40.95 104.82 40.95 103.6C40.95 102.28 40.63 101.06 40 99.9298C39.36 98.7998 38.36 97.9998 37 97.5298C36.2 97.2498 35.35 97.0398 34.46 96.8898C33.56 96.7498 32.41 96.6798 31 96.6798H25.35V110.6L25.33 110.59Z" fill="#007E88"/>
<path d="M62.35 134.9C60.23 133.86 58.45 132.5 57.02 130.8C55.58 129.1 54.51 127.19 53.81 125.04C53.1 122.9 52.75 120.72 52.75 118.5C52.75 116.28 53.1 114.12 53.81 112C54.52 109.88 55.59 107.98 57.02 106.31C58.46 104.64 60.25 103.3 62.39 102.28C64.53 101.27 67.04 100.76 69.91 100.76C72.78 100.76 75.29 101.27 77.43 102.28C79.57 103.29 81.36 104.64 82.8 106.31C84.24 107.98 85.31 109.88 86.01 112C86.72 114.12 87.07 116.29 87.07 118.5C87.07 120.71 86.72 122.89 86.01 125.04C85.3 127.18 84.23 129.1 82.8 130.8C81.36 132.5 79.57 133.86 77.43 134.9C75.29 135.94 72.78 136.45 69.91 136.45C67.04 136.45 64.52 135.93 62.35 134.9ZM63.83 125.86C64.49 126.8 65.32 127.54 66.34 128.09C67.35 128.63 68.54 128.9 69.91 128.9C71.28 128.9 72.39 128.63 73.41 128.09C74.42 127.55 75.27 126.81 75.95 125.86C76.63 124.92 77.15 123.82 77.5 122.57C77.85 121.32 78.03 119.97 78.03 118.51C78.03 117.05 77.85 115.75 77.5 114.48C77.15 113.21 76.63 112.11 75.95 111.19C75.27 110.27 74.42 109.54 73.41 109C72.4 108.46 71.23 108.19 69.91 108.19C68.59 108.19 67.43 108.46 66.41 109C65.4 109.54 64.55 110.27 63.87 111.19C63.19 112.11 62.67 113.2 62.32 114.48C61.97 115.75 61.79 117.09 61.79 118.51C61.79 119.93 61.97 121.32 62.32 122.57C62.67 123.82 63.18 124.91 63.84 125.86H63.83Z" fill="#007E88"/>
<path d="M116.33 135.67L115.98 132.99C114.33 134.31 112.64 135.2 110.89 135.67C109.15 136.14 107.43 136.38 105.73 136.38C101.58 136.38 98.4101 135.18 96.1901 132.78C93.9801 130.38 92.8701 126.75 92.8701 121.9V101.62H102.13V120.98C102.13 123.34 102.58 125.24 103.47 126.7C104.36 128.16 105.9 128.89 108.06 128.89C109.85 128.89 111.36 128.55 112.58 127.87C113.8 127.19 114.79 126.54 115.55 125.93V101.63H124.81V135.68H116.33V135.67Z" fill="#007E88"/>
<path d="M132.93 135.67V101.62H141.34L141.76 104.3C143.17 103.17 144.8 102.3 146.63 101.69C148.47 101.08 150.3 100.77 152.14 100.77C153.98 100.77 155.75 101.04 157.33 101.58C158.91 102.12 160.26 102.98 161.39 104.16C162.52 105.34 163.4 106.87 164.04 108.75C164.68 110.63 164.99 112.9 164.99 115.53V135.67H155.73V116.24C155.73 113.65 155.16 111.65 154.03 110.23C152.9 108.82 151.32 108.11 149.3 108.11C147.89 108.11 146.57 108.46 145.34 109.17C144.11 109.88 143.05 110.65 142.16 111.5V135.66H132.9L132.93 135.67Z" fill="#007E88"/>
<path d="M194.68 135.67L194.26 133.06C193.41 133.96 192.3 134.74 190.94 135.43C189.57 136.11 187.95 136.45 186.06 136.45C183.61 136.45 181.43 135.96 179.52 134.97C177.61 133.98 176.01 132.66 174.72 131.01C173.42 129.36 172.45 127.45 171.79 125.29C171.13 123.12 170.8 120.86 170.8 118.51C170.8 116.3 171.15 114.13 171.86 112.01C172.57 109.89 173.63 107.99 175.04 106.32C176.45 104.65 178.22 103.31 180.34 102.29C182.46 101.28 184.96 100.77 187.83 100.77C189.76 100.77 191.79 101.1 193.91 101.76V88.5498H203.09V135.67H194.68ZM193.9 109.18C192.16 108.52 190.51 108.19 188.95 108.19C187.39 108.19 186.04 108.47 184.89 109.04C183.74 109.61 182.78 110.37 182.03 111.34C181.28 112.31 180.71 113.39 180.33 114.59C179.95 115.79 179.76 117.03 179.76 118.3C179.76 119.71 179.92 121.07 180.25 122.36C180.58 123.66 181.07 124.79 181.73 125.75C182.39 126.72 183.22 127.49 184.24 128.08C185.25 128.67 186.47 128.96 187.88 128.96C189.01 128.96 190.16 128.67 191.34 128.08C192.52 127.49 193.36 126.8 193.88 126V109.18H193.9Z" fill="#007E88"/>
<path d="M211.21 135.67V88.5498H220.47V135.67H211.21Z" fill="#007E88"/>
<path d="M247.45 135.67L247.03 133.13C246.04 134.17 244.78 134.98 243.25 135.57C241.72 136.16 240.04 136.45 238.2 136.45C236.69 136.45 235.22 136.2 233.78 135.71C232.34 135.22 231.08 134.51 230 133.59C228.92 132.67 228.04 131.54 227.39 130.2C226.73 128.86 226.4 127.34 226.4 125.64C226.4 123.94 226.75 122.45 227.46 121.15C228.17 119.85 229.11 118.76 230.29 117.86C231.47 116.97 232.82 116.23 234.35 115.67C235.88 115.1 237.49 114.68 239.19 114.4C240.37 114.16 241.66 113.99 243.08 113.87C244.49 113.75 245.67 113.65 246.61 113.55V112.42C246.61 111.05 246.14 109.95 245.2 109.1C244.26 108.25 243.15 107.83 241.88 107.83C241.08 107.83 240.07 108.04 238.84 108.47C237.61 108.89 236.44 109.7 235.31 110.87L229.02 106.49C229.91 105.36 230.94 104.42 232.09 103.66C233.24 102.91 234.42 102.32 235.62 101.89C236.82 101.47 238.01 101.17 239.19 101.01C240.37 100.85 241.45 100.76 242.44 100.76C244.42 100.76 246.23 101.01 247.88 101.5C249.53 101.99 250.95 102.77 252.15 103.83C253.35 104.89 254.28 106.23 254.94 107.86C255.6 109.49 255.93 111.45 255.93 113.76V135.66H247.45V135.67ZM246.67 119.77C245.73 119.82 244.73 119.9 243.67 120.02C242.61 120.14 241.61 120.29 240.67 120.48C238.69 120.86 237.31 121.5 236.54 122.42C235.76 123.34 235.37 124.34 235.37 125.42C235.37 126.5 235.79 127.46 236.64 128.14C237.49 128.82 238.74 129.16 240.38 129.16C241.56 129.16 242.7 128.92 243.81 128.45C244.92 127.98 245.87 127.39 246.67 126.68V119.76V119.77Z" fill="#007E88"/>
<path d="M263.84 135.67V101.62H272.25L272.67 104.3C274.08 103.17 275.71 102.3 277.55 101.69C279.39 101.08 281.22 100.77 283.06 100.77C284.9 100.77 286.67 101.04 288.25 101.58C289.83 102.12 291.18 102.98 292.31 104.16C293.44 105.34 294.32 106.87 294.96 108.75C295.6 110.63 295.91 112.9 295.91 115.53V135.67H286.65V116.24C286.65 113.65 286.08 111.65 284.95 110.23C283.82 108.82 282.24 108.11 280.22 108.11C278.81 108.11 277.49 108.46 276.26 109.17C275.03 109.88 273.97 110.65 273.08 111.5V135.66H263.82L263.84 135.67Z" fill="#007E88"/>
<path d="M325.59 135.67L325.17 133.06C324.32 133.96 323.21 134.74 321.85 135.43C320.48 136.11 318.86 136.45 316.98 136.45C314.53 136.45 312.35 135.96 310.44 134.97C308.53 133.98 306.93 132.66 305.64 131.01C304.34 129.36 303.37 127.45 302.71 125.29C302.05 123.12 301.72 120.86 301.72 118.51C301.72 116.3 302.07 114.13 302.78 112.01C303.49 109.89 304.55 107.99 305.96 106.32C307.37 104.65 309.14 103.31 311.26 102.29C313.38 101.28 315.88 100.77 318.75 100.77C320.68 100.77 322.71 101.1 324.83 101.76V88.5498H334.01V135.67H325.6H325.59ZM324.81 109.18C323.07 108.52 321.42 108.19 319.86 108.19C318.3 108.19 316.95 108.47 315.8 109.04C314.65 109.61 313.69 110.37 312.94 111.34C312.19 112.31 311.62 113.39 311.24 114.59C310.86 115.79 310.67 117.03 310.67 118.3C310.67 119.71 310.83 121.07 311.16 122.36C311.49 123.66 311.98 124.79 312.64 125.75C313.3 126.72 314.13 127.49 315.15 128.08C316.16 128.67 317.38 128.96 318.79 128.96C319.92 128.96 321.07 128.67 322.25 128.08C323.43 127.49 324.27 126.8 324.79 126V109.18H324.81Z" fill="#007E88"/>
</svg>
