<?xml version="1.0" encoding="UTF-8"?>
<svg id="Layer_1" data-name="Layer 1" xmlns="http://www.w3.org/2000/svg" viewBox="0 0 350 225">
  <defs>
    <style>
      .cls-1 {
        fill: #d1202f;
        stroke-width: 0px;
      }
    </style>
  </defs>
  <path class="cls-1" d="m191.37,91.76c-8.82,0-16.63,2.08-20.78,3.57.17.58,1.83,8.9,2.08,9.89,5.15-1.83,11.97-3.07,16.46-3.07,7.23,0,10.38,2.07,10.38,7.23v2.08c-22.69,0-32.16,8.06-32.16,18.45,0,11.55,10.56,18.12,25.6,18.12,9.81,0,18.45-1.66,22.03-2.74v-35.24c0-12.39-7.82-18.29-23.6-18.29m8.13,45.63c-1.49.33-3.99.5-5.31.5-5.24,0-10.8-2.16-10.8-8.15s5.15-8.81,16.12-8.73v16.37Zm-130.84-45.63c-16.12,0-28.25,12.14-28.25,29.42,0,16.04,11.14,26.85,27.84,26.85,4.33,0,10.14-1.25,13.22-2.49l-2.41-9.31c-2.91,1-6.15,1.41-8.48,1.41-8.97,0-14.55-6.57-14.55-17.37s6.24-18.12,15.21-18.12c2.16,0,4.49.58,6.31,1.24l2.66-9.56c-3.16-1.33-7.65-2.08-11.56-2.08m249.79-14.79v15.54c-1.75-.33-4.24-.75-7.81-.75-13.22,0-27.43,9.06-27.43,28.51,0,17.37,11.3,27.76,30.16,27.76,7.98,0,16.88-1.25,20.61-2.33v-68.73h-15.54Zm0,60.59c-1.33.25-3.16.33-4.24.33-9.73,0-15.29-6.65-15.29-18.03,0-8.65,3.66-17.7,14.46-17.7,1.5,0,3.98.25,5.07.58v34.82Zm-200.31.33c-12.22,0-16.04-5.24-17.04-10.14l33.16-7.07c-.08-24.27-14.54-28.92-23.93-28.92-12.22,0-25.43,8.89-25.43,28.51,0,17.37,11.64,27.76,30.92,27.76,5.82,0,12.22-1.25,15.54-2.5l-2.07-9.3c-3.08.99-7.48,1.66-11.14,1.66m-7.81-35.74c5.07,0,8.48,3.65,9.06,10.72l-19.04,4.07c-.16-9.39,3.74-14.79,9.97-14.79m32.75,44.8h15.46v-69.98h-15.46v69.98Zm-127.08,0h15.46v-69.98h-15.46v69.98Zm225.41-44.13c2.24-.5,5.73-.92,8.48-.92,5.74,0,9.47,1.67,9.47,9.15v35.91h15.46v-36.74c0-12.55-7.65-18.45-24.6-18.45-9.57,0-20.45,1.91-24.36,2.74v52.45h15.54v-44.13Z"/>
</svg>