<?xml version="1.0" encoding="UTF-8"?>
<svg id="Layer_1" data-name="Layer 1" xmlns="http://www.w3.org/2000/svg" viewBox="0 0 350 225">
  <defs>
    <style>
      .cls-1, .cls-2, .cls-3 {
        fill-rule: evenodd;
      }

      .cls-1, .cls-2, .cls-3, .cls-4, .cls-5, .cls-6 {
        stroke-width: 0px;
      }

      .cls-1, .cls-4 {
        fill: #1253a5;
      }

      .cls-2, .cls-5 {
        fill: #e51e25;
      }

      .cls-3 {
        fill: #fdee19;
      }

      .cls-6 {
        fill: #fff;
      }
    </style>
  </defs>
  <path id="path1237" class="cls-6" d="m78.5,16v193h193V16H78.5Z"/>
  <path id="path1239" class="cls-4" d="m80.18,17.68h189.64v189.64H80.18V17.68Z"/>
  <path id="path1241" class="cls-5" d="m175,22.71c-49.6,0-89.81,40.19-89.82,89.79,0,49.6,40.19,89.81,89.79,89.82,49.6,0,89.81-40.19,89.82-89.79,0-49.59-40.2-89.79-89.79-89.82Z"/>
  <path id="path1243" class="cls-3" d="m175,28.39c-46.46,0-84.11,37.66-84.11,84.11s37.66,84.11,84.11,84.11,84.1-37.64,84.11-84.08c0-46.46-37.65-84.13-84.11-84.15Z"/>
  <path id="path1245" class="cls-2" d="m169.78,114.87l-14.85-14.85-17.12,17.15v5.76l4.31-4.33,11.95,11.98-4.41,4.4,2.87,2.89,23.9-23.93v-5.74l-6.65,6.68Z"/>
  <path id="path1247" class="cls-1" d="m100.45,96.89h26.45v5.71h-4.41v18.46l15.32-8.53v15.62h-37.36v-5.74h4.43v-19.82h-4.43v-5.71Zm111.52,0v5.71h4.43v19.82h-4.43v5.74h37.39v-15.62l-15.34,8.53v-18.46h4.43v-5.71h-26.48Z"/>
  <path id="path1249" class="cls-2" d="m152.75,79.12c5.2,0,9.42,4.22,9.42,9.42,0,5.2-4.22,9.42-9.42,9.42s-9.42-4.22-9.42-9.42c0-.01,0-.02,0-.03,0-5.18,4.2-9.38,9.38-9.38.01,0,.02,0,.03,0Z"/>
  <path id="path1251" class="cls-4" d="m172.06,96.89v5.71h4.41v19.82h-4.46v5.74h25.17c18.7,0,18.93-31.27.05-31.27h-25.17Zm20.37,9.73h1.06c5.52,0,5.52,11.75.2,11.75h-1.26v-11.75Z"/>
</svg>